<?xml version="1.0" standalone="no"?>
<!DOCTYPE svg PUBLIC "-//W3C//DTD SVG 1.1//EN" "http://www.w3.org/Graphics/SVG/1.1/DTD/svg11.dtd" >
<svg>
<metadata>
Created by FontForge 20090622 at Fri Feb 19 14:42:00 2016
 By deploy user
Copyright Copr. 1995 Carter &#38; Cone Type Inc. All rights reserved.
</metadata>
<defs>
<font id="Miller-TextRoman" horiz-adv-x="500" >
  <font-face 
    font-family="Miller"
    font-weight="500"
    font-stretch="normal"
    units-per-em="1000"
    panose-1="2 0 6 3 8 0 0 2 0 3"
    ascent="800"
    descent="-200"
    x-height="462"
    cap-height="683"
    bbox="-139 -237 1202 935"
    underline-thickness="20"
    underline-position="-113"
    unicode-range="U+0005-U+2122"
  />
<missing-glyph 
 />
    <glyph glyph-name=".notdef" 
 />
    <glyph glyph-name="NUL" horiz-adv-x="0" 
 />
    <glyph glyph-name="nonmarkingreturn" horiz-adv-x="240" 
 />
    <glyph glyph-name="space" unicode=" " horiz-adv-x="240" 
 />
    <glyph glyph-name="space" unicode="&#xa0;" horiz-adv-x="240" 
 />
    <glyph glyph-name="breve" 
d="M404 720q-14 -52 -32 -86.5t-38.5 -55.5t-42 -30t-41.5 -9t-41.5 9t-42 30t-38.5 55.5t-32 86.5l19 6q23 -51 56 -81t79 -30t79 30t56 81l19 -6v0z" />
    <glyph glyph-name="dotaccent" 
d="M309 659q0 -25 -17 -43t-42 -18q-24 0 -41 17t-17 40q0 24 17 41.5t41 17.5q26 0 42.5 -16.5t16.5 -38.5z" />
    <glyph glyph-name="ring" 
d="M309 638q0 30 -15 50t-44 20q-28 0 -43.5 -19t-15.5 -51q0 -31 15 -50.5t44 -19.5t44 19t15 51zM358 638q0 -44 -30.5 -72t-77.5 -28q-48 0 -78 27.5t-30 72.5q0 22 8.5 40.5t23.5 31.5t34.5 20.5t41.5 7.5q45 0 76.5 -27.5t31.5 -72.5z" />
    <glyph glyph-name="hungarumlaut" unicode="&#xa;" 
d="M243 703q0 -19 -9.5 -30t-26.5 -25l-23 -19l-28.5 -23l-38 -30.5l-49.5 -41.5l-12 12l33 50l25.5 40l20.5 33l17 29q14 25 27 34t30 9q15 0 24.5 -12t9.5 -26zM424 703q0 -19 -9.5 -30t-26.5 -25l-23 -19l-28.5 -23l-38 -30.5l-49.5 -41.5l-12 12l33 50l25.5 40l20.5 33
l17 29q14 25 27 34t30 9q15 0 24.5 -12t9.5 -26z" />
    <glyph glyph-name="ogonek" 
d="M339 -236q-42 0 -77 4.5t-60.5 15.5t-40 29t-14.5 44q0 42 30.5 76t92.5 67h42q-49 -42 -67.5 -75.5t-18.5 -60.5q0 -16 5.5 -27.5t18.5 -19t35 -11.5t54 -7v-35v0z" />
    <glyph glyph-name="caron" 
d="M409 732l-69 -100.5l-47 -70.5q-10 -14 -16 -18t-28 -4q-11 0 -17 0.5t-10 3t-7 6.5t-7 10l-48 70.5l-69 102.5l19 12l141 -134l139 134l19 -12v0z" />
    <glyph glyph-name="dotlessi" unicode="&#xd;" horiz-adv-x="291" 
d="M35 0v31q14 1 23.5 2t20.5 4q27 9 27 44v280q-3 34 -27 50q-9 6 -27 10.5t-32 5.5v30l170 11l7 -7v-374q0 -35 27 -45q11 -5 20.5 -7.5t23.5 -3.5v-31h-233z" />
    <glyph glyph-name="fraction" horiz-adv-x="370" 
d="M-67 -212l-43 21l503 943l44 -21z" />
    <glyph glyph-name="fi" horiz-adv-x="583" 
d="M327 0v31q14 1 22 2t19 4q27 9 27 44v293q-2 15 -4.5 26t-9.5 22h-184v-336q0 -34 27 -44q24 -10 50 -11v-31h-239v31q14 1 23.5 2t20.5 4q27 9 27 44v338h-100v41h100v21q0 63 19.5 113t55.5 89q22 23 60.5 43.5t86.5 20.5q46 0 76.5 -8.5t48 -23t24.5 -34t7 -40.5
q0 -8 -3 -18t-9 -18.5t-16 -14.5t-25 -6q-8 0 -17.5 2t-18 7.5t-14.5 14t-6 21.5q0 25 7 35.5t9 16.5q0 3 -3 8.5t-10.5 11t-20.5 9t-35 3.5q-23 0 -45.5 -10t-40 -33.5t-28.5 -62t-11 -96.5v-51h161l121 8l7 -7v-374q0 -35 27 -45q11 -5 20.5 -7.5t23.5 -3.5v-31h-230z" />
    <glyph glyph-name="fl" horiz-adv-x="584" 
d="M329 0v31q14 1 22.5 2t19.5 4q28 9 28 44v512q-10 3 -21.5 10t-11.5 26q0 12 4 20.5t9 14t9 8.5t5 5q0 4 -3 10t-11 12t-22 10.5t-36 4.5q-23 0 -45 -10t-39.5 -33.5t-28.5 -62.5t-11 -97v-51h123v-43h-123v-331q0 -34 27 -44q24 -10 50 -11v-31h-239v31q14 1 23.5 2
t20.5 4q27 9 27 44v336h-100v43h100v21q0 63 19.5 113t55.5 89q22 23 60 43.5t86 20.5q38 0 61.5 -7t42.5 -16l51 22l7 -7v-652q0 -33 27 -45q11 -5 20.5 -7.5t23.5 -3.5v-31h-231z" />
    <glyph glyph-name="Lslash" horiz-adv-x="631" 
d="M617 0h-571v33q7 0 17 1t20.5 2.5t20 3t14.5 3.5q18 7 24.5 20t6.5 30v197l-82 -29l-15 39l97 35v247q0 17 -6 29.5t-25 20.5q-14 6 -36 11.5t-36 6.5v33h313v-33q-14 -1 -36.5 -4.5t-36.5 -8.5q-19 -6 -25 -19.5t-6 -30.5v-213l159 58l15 -40l-174 -63v-200
q0 -32 3.5 -50.5t15.5 -27.5t35.5 -11.5t64.5 -2.5q18 0 39 1t40.5 4t34.5 8t23 13q10 10 23.5 29t26 39.5t23 40t14.5 32.5h34z" />
    <glyph glyph-name="lslash" horiz-adv-x="304" 
d="M198 314v-227q0 -33 27 -45q11 -5 20.5 -7.5t23.5 -3.5v-31h-233v31q14 1 23.5 2t20.5 4q27 9 27 44v200l-76 -27l-15 39l91 33v305q-2 17 -8.5 33t-18.5 24q-5 3 -13.5 6t-19 5l-20.5 4t-17 2v30l181 11l7 -7v-380l76 28l15 -40z" />
    <glyph glyph-name="Zcaron" horiz-adv-x="628" 
d="M596 0h-591v12l462 634h-170q-26 0 -46 -1t-35 -4q-20 -4 -41 -21t-39.5 -40t-33.5 -47.5t-22 -43.5h-34l21 194h539v-12l-462 -634h192q22 0 45 1t43 4t35.5 8t23.5 13q16 15 31.5 34.5t29 40.5t24.5 41t17 36h34zM483 923l-69 -100.5l-47 -70.5q-10 -14 -16 -18t-28 -4
q-11 0 -17 0.5t-10 3t-7 6.5t-7 10l-48 70.5l-69 102.5l19 12l141 -134l139 134l19 -12v0z" />
    <glyph glyph-name="zcaron" horiz-adv-x="442" 
d="M26 0v25l272 401h-54q-26 0 -50 -0.5t-44 -3t-33 -7.5q-15 -6 -26.5 -32t-19.5 -61h-27v140h367v-19l-276 -407q25 -1 44 -1h40t43.5 0.5t55.5 2.5q20 1 29.5 12.5t15.5 26.5l5.5 16.5l7.5 22.5t7.5 24t5.5 21h26v-161h-389zM383 732l-69 -100.5l-47 -70.5
q-10 -14 -16 -18t-28 -4q-11 0 -17 0.5t-10 3t-7 6.5t-7 10l-48 70.5l-69 102.5l19 12l141 -134l139 134l19 -12v0z" />
    <glyph glyph-name="exclam" unicode="!" horiz-adv-x="365" 
d="M252 54q0 -28 -19.5 -47t-47.5 -19t-47.5 19t-19.5 47t19.5 47.5t47.5 19.5t47.5 -19.5t19.5 -47.5zM247 629q0 -15 -4.5 -55.5t-11.5 -96.5t-14.5 -124.5t-14.5 -139.5h-36q-6 71 -13 138.5t-14 124t-11.5 97t-4.5 56.5q0 28 17 48t45 20t45 -20t17 -48z" />
    <glyph glyph-name="quotedbl" unicode="&#x22;" horiz-adv-x="392" 
d="M153 682q0 -20 -13.5 -73.5t-27.5 -136.5h-30q-13 84 -26 136.5t-13 73.5q0 23 14 39t41 16t41 -16t14 -39zM349 682q0 -20 -13.5 -73.5t-27.5 -136.5h-30q-13 84 -26 136.5t-13 73.5q0 23 14 39t41 16t41 -16t14 -39z" />
    <glyph glyph-name="numbersign" unicode="#" horiz-adv-x="580" 
d="M349 388l-117 -29v-111l117 29v111zM381 194v-201h-32v193l-117 -29v-164h-32v156l-107 -27v91l107 27v111l-107 -27v91l107 27v185h32v-177l117 29v148h32v-140l108 27v-91l-108 -27v-111l108 27v-91z" />
    <glyph glyph-name="dollar" unicode="$" horiz-adv-x="615" 
d="M469 145q0 50 -36 82t-105 37v-235q70 5 105.5 35t35.5 81zM294 584q-66 -5 -98 -33.5t-32 -67.5q0 -30 9 -50.5t25.5 -33t40.5 -19.5t55 -11v215zM537 188q0 -46 -16 -81t-44 -59t-66 -37.5t-83 -16.5v-136h-34v135q-46 1 -85.5 12t-68.5 31.5t-45.5 48t-16.5 61.5
q0 29 15 45t40 16q22 0 35.5 -16t13.5 -39q0 -11 -3.5 -18t-8.5 -12t-9.5 -10t-6.5 -13q7 -29 39 -49.5t101 -21.5v237q-41 2 -77.5 13t-64 32t-43.5 51.5t-16 71.5q0 29 9.5 60.5t33 58.5t62 45.5t96.5 21.5v94h34v-93q52 -1 89 -12t60 -28t34 -38t11 -43
q0 -31 -14.5 -45.5t-33.5 -14.5t-32.5 12.5t-13.5 32.5t8 29t11 26q-3 9 -10 17t-20.5 14t-35 10t-53.5 5v-218q97 -8 153 -51t56 -128z" />
    <glyph glyph-name="percent" unicode="%" horiz-adv-x="878" 
d="M304 457q0 66 -22 99t-59 33t-58.5 -33.5t-21.5 -93.5q0 -62 21.5 -95.5t60.5 -33.5q31 0 55 30.5t24 93.5zM734 141q0 65 -22 98.5t-59 33.5t-58.5 -35t-21.5 -92q0 -61 21.5 -95t60.5 -34q31 0 55 31t24 93zM383 459q0 -33 -14 -61.5t-36.5 -49.5t-51.5 -33.5
t-59 -12.5q-31 0 -59.5 10t-50 30t-34.5 49t-13 67q0 35 14 64.5t36 51.5t50 34t57 12q30 0 59 -10t51.5 -30t36.5 -50t14 -71zM242 -101l-37 21l427 773l39 -21zM813 143q0 -33 -14 -61.5t-36.5 -50t-51.5 -33.5t-59 -12q-31 0 -59.5 10.5t-50 30t-34.5 48.5t-13 67
q0 34 14 64t36 51.5t50 34t57 12.5q30 0 59 -9.5t51.5 -29.5t36.5 -50.5t14 -71.5z" />
    <glyph glyph-name="ampersand" unicode="&#x26;" horiz-adv-x="745" 
d="M400 110l-45.5 59.5l-48.5 63l-46 61.5t-38 54q-45 -28 -63.5 -67.5t-18.5 -90.5q0 -61 34 -101t97 -40q38 0 71 15.5t58 45.5zM383 560q0 48 -21.5 71.5t-54.5 23.5q-25 0 -40 -10t-23.5 -24.5t-11.5 -29.5t-3 -25q0 -26 14 -61t49 -84q48 29 69.5 62t21.5 77zM751 399
q-43 -5 -77 -10.5t-54 -27.5q-11 -12 -23.5 -35.5l-27.5 -52.5t-34 -60.5t-42 -59.5q10 -13 22.5 -26.5t25.5 -25.5t25.5 -22t21.5 -16q10 -6 27 -11.5t36.5 -9t38.5 -6t34 -3.5v-33h-234l-67 83q-18 -18 -38.5 -36t-44.5 -32t-52 -22.5t-60 -8.5q-35 0 -69.5 9.5t-61.5 30
t-43.5 52t-16.5 76.5q0 67 41 118t125 104l-32.5 53t-21.5 42.5t-12 37t-4 36.5q0 34 14 62.5t38 48.5t55 31.5t65 11.5q36 0 61.5 -11.5t42 -30t24.5 -42.5t8 -48q0 -54 -35 -94.5t-96 -77.5l42 -60.5l37.5 -50.5l38 -48l42.5 -53q16 23 30.5 47t25 47.5t17 45t6.5 38.5
q0 15 -23 23.5t-62 16.5v32h287v-32v0z" />
    <glyph glyph-name="quotesingle" unicode="'" horiz-adv-x="196" 
d="M153 682q0 -20 -13.5 -73.5t-27.5 -136.5h-30q-13 84 -26 136.5t-13 73.5q0 23 14 39t41 16t41 -16t14 -39z" />
    <glyph glyph-name="parenleft" unicode="(" horiz-adv-x="365" 
d="M290 -160q-44 33 -87.5 74.5t-78 96t-56.5 124.5t-22 160q0 87 21 155.5t55 123t77.5 97t89.5 77.5l43 -27q-42 -33 -82.5 -72.5t-72 -90.5t-50.5 -116t-19 -147q0 -84 20 -151t52 -118.5t72 -90.5t80 -68z" />
    <glyph glyph-name="parenright" unicode=")" horiz-adv-x="365" 
d="M319 295q0 -90 -22 -160t-56.5 -124.5t-78.5 -96t-87 -74.5l-42 27q40 29 80 68t72 90.5t52 118.5t20 151q0 82 -19 147t-50.5 116t-72 90.5t-82.5 72.5l43 27q46 -35 89.5 -77.5t77.5 -97t55 -123t21 -155.5z" />
    <glyph glyph-name="asterisk" unicode="*" horiz-adv-x="443" 
d="M387 422q-9 -14 -23.5 -16.5t-25.5 5.5q-16 10 -42 36.5t-66 55.5q5 -49 16 -85.5t12 -53.5q0 -15 -9 -26t-27 -11q-17 0 -26.5 11t-9.5 26q1 17 11.5 53t15.5 86q-40 -29 -66.5 -55.5t-40.5 -36.5q-13 -8 -26.5 -6t-22.5 17q-10 15 -5.5 28.5t18.5 20.5q15 8 51 17
t85 31q-49 22 -84.5 31t-51.5 17q-14 7 -18 20t5 28q8 15 22.5 17.5t26.5 -5.5q15 -10 41 -36.5t66 -55.5q-6 48 -16 85t-11 54q0 15 9 25.5t27 10.5q17 0 26.5 -10.5t9.5 -25.5q-1 -17 -12 -53.5t-16 -85.5q40 29 66.5 55.5t41.5 36.5q12 8 26 6t23 -18q9 -14 5 -27.5
t-18 -20.5q-16 -8 -51.5 -17t-84.5 -31q49 -22 84 -31t52 -17q13 -7 17.5 -20t-4.5 -29z" />
    <glyph glyph-name="plus" unicode="+" horiz-adv-x="580" 
d="M317 234v-215h-54v215h-214v52h214v215h54v-215h214v-52h-214z" />
    <glyph glyph-name="comma" unicode="," horiz-adv-x="250" 
d="M197 18q0 -35 -15.5 -65t-37 -54.5t-45.5 -42.5t-42 -28l-21 33q21 12 40 26t34 31t25 37.5t12 46.5h-27q-39 0 -54 20t-15 43q0 21 16.5 40t45.5 19q45 0 64.5 -29t19.5 -77z" />
    <glyph glyph-name="hyphen" unicode="-" horiz-adv-x="374" 
d="M40 212v77h294v-77h-294z" />
    <glyph glyph-name="period" unicode="." horiz-adv-x="250" 
d="M193 57q0 -28 -19.5 -47t-47.5 -19t-47.5 19t-19.5 47t19.5 47.5t47.5 19.5t47.5 -19.5t19.5 -47.5z" />
    <glyph glyph-name="slash" unicode="/" horiz-adv-x="420" 
d="M72 -212l-50 13l312 951l51 -13z" />
    <glyph glyph-name="zero" unicode="0" horiz-adv-x="614" 
d="M456 303q0 58 -9 108.5t-27 88.5t-45.5 60t-65.5 22q-32 0 -59.5 -19.5t-47.5 -56t-32 -88.5t-12 -117q0 -60 9 -111t27 -88.5t45.5 -58.5t65.5 -21q31 0 58.5 19.5t48 56t32.5 88.5t12 117zM564 316q0 -77 -21.5 -138t-57.5 -103.5t-83.5 -65.5t-99.5 -23
q-62 0 -109 24.5t-78.5 66t-48 96t-16.5 115.5q0 77 22 138t58 104t83.5 65.5t98.5 22.5q61 0 108 -24t79 -65.5t48.5 -96.5t16.5 -116z" />
    <glyph glyph-name="one" unicode="1" horiz-adv-x="424" 
d="M74 0v33q7 0 18 1l23 2t22.5 2.5t15.5 3.5q14 5 22.5 17.5t8.5 29.5v427q-15 -4 -41 -4q-12 0 -26.5 5.5t-30 14.5t-31 20.5t-28.5 22.5l13 23q23 -10 49 -16.5t56 -6.5q43 0 73.5 13.5t52.5 28.5h23q-5 -32 -9.5 -74t-4.5 -76v-373q0 -16 7.5 -29t21.5 -19q6 -3 15.5 -5
t20.5 -3.5l21.5 -3t17.5 -1.5v-33h-310z" />
    <glyph glyph-name="two" unicode="2" horiz-adv-x="561" 
d="M460 0h-412v37l81.5 59t61.5 47t50.5 43.5t47.5 48.5q30 32 46.5 62t25 56t10.5 49t2 41q0 71 -31.5 104.5t-77.5 33.5q-23 0 -43.5 -7t-36 -18.5t-24.5 -27t-10 -32.5q1 -6 5 -11t9 -12t9 -15.5t4 -21.5q0 -8 -2 -18.5t-8 -19.5t-17.5 -15.5t-30.5 -6.5q-16 0 -27 6
t-18 16t-10 21.5t-3 23.5q0 22 12.5 52t39.5 57.5t68 46.5t98 19q43 0 79.5 -13t62.5 -36.5t41 -56.5t15 -73q0 -48 -13 -87t-45.5 -76.5t-88 -78t-141.5 -91.5l-27 -25h234q19 0 33.5 9.5t25.5 24.5t19.5 32.5l16.5 33.5l28 -10z" />
    <glyph glyph-name="three" unicode="3" horiz-adv-x="563" 
d="M504 189q0 -51 -21 -91t-58.5 -67.5t-88.5 -42t-112 -14.5q-33 0 -67.5 9t-62 26.5t-45 43.5t-17.5 60q0 40 21.5 60t51.5 20q25 0 38 -13t13 -36q0 -16 -7 -23.5t-15 -13.5t-15 -13t-7 -20q0 -26 26 -44.5t84 -18.5q33 0 64.5 13.5t57 37.5t41 58.5t15.5 76.5
q0 54 -22 78.5t-63 24.5q-23 0 -42 -12.5t-36 -30.5l-23 35l68 44.5t53.5 42.5t35 47.5t12.5 58.5q0 45 -25.5 71t-82.5 26q-23 0 -40.5 -6.5t-29 -15.5t-18 -18t-7.5 -14q1 -11 9.5 -22.5t8.5 -37.5q0 -8 -1.5 -18t-7 -19t-16.5 -15t-30 -6q-16 0 -26.5 6t-17 15t-9 20
t-2.5 21q0 23 13.5 48.5t40 47.5t66.5 36t93 14q54 0 89.5 -14.5t57 -35t30 -43.5t8.5 -40q0 -21 -7.5 -42.5t-25.5 -40t-47.5 -34.5t-74.5 -26l-18 -15q2 0 7.5 0.5l11.5 1t11 1t8 0.5q24 0 50.5 -6.5t49.5 -23t38 -43.5t15 -68z" />
    <glyph glyph-name="four" unicode="4" horiz-adv-x="569" 
d="M288 507l-214 -256h214v256zM501 111q-1 22 -8 46.5t-22 36.5q-12 10 -34 10.5t-57 0.5v-113q0 -17 6.5 -29.5t20.5 -18.5q6 -2 14.5 -4t18.5 -3.5t19 -2.5t16 -1v-33h-283v33q14 1 36 2t32 5q14 5 21 17t7 29v119h-264v48l313 374h43v-376q35 0 56 1t34 12q14 11 21 34
t8 42h29v-229h-27z" />
    <glyph glyph-name="five" unicode="5" horiz-adv-x="522" 
d="M490 612q-23 -44 -62 -69t-79 -37t-74.5 -14.5t-48.5 -2.5q-18 0 -34.5 0.5t-21.5 1.5l-37 -147q23 17 59 27.5t70 10.5q39 0 75 -12.5t64 -37t45 -60.5t17 -83q0 -46 -21 -83.5t-55 -64t-77.5 -41t-89.5 -14.5q-43 0 -77.5 9.5t-58.5 25.5t-36.5 38t-12.5 46
q0 19 6.5 31.5t16.5 20t21 10t19 2.5q21 0 31.5 -12t10.5 -32q0 -11 -2 -18t-5 -13t-5 -13t-2 -20q2 -14 27 -27.5t66 -13.5q42 0 69.5 22.5t43 56t22 72t6.5 69.5q0 32 -11.5 52.5t-29 32t-37.5 16t-38 4.5q-16 0 -34.5 -4t-36 -13t-31 -23t-20.5 -34l-39 8l76 336h32
q11 -12 41 -25.5t89 -13.5q27 0 47 3.5t37.5 10t32.5 16.5t32 23l20 -17v0z" />
    <glyph glyph-name="six" unicode="6" horiz-adv-x="565" 
d="M403 217q0 76 -30 117.5t-94 41.5q-21 0 -43 -9.5t-39.5 -31t-29 -55.5t-11.5 -83q0 -43 10.5 -76t27.5 -55.5t38 -34t43 -11.5q41 0 66 20t39 50t18.5 64t4.5 63zM529 601q0 -26 -11 -41.5t-40 -15.5q-18 0 -27.5 8t-14.5 20.5t-9 28t-11 30.5q-7 14 -20 19.5t-40 5.5
q-33 0 -64 -21t-56.5 -60.5t-45 -96.5t-28.5 -129l4 -2q32 42 71 59.5t94 17.5q33 0 65 -14.5t57.5 -41.5t41 -65.5t15.5 -85.5q0 -36 -11.5 -76.5t-39 -75t-73 -57t-114.5 -22.5q-44 0 -83 19t-68 55.5t-46 89.5t-17 121q0 90 29.5 168.5t78 136t109.5 91t124 33.5
q38 0 63 -10.5t40 -26t21 -32.5t6 -30z" />
    <glyph glyph-name="seven" unicode="7" horiz-adv-x="506" 
d="M518 574l-52.5 -77t-41.5 -67t-36.5 -69.5t-35.5 -84.5l-26.5 -71.5t-22 -71.5t-16 -78t-9.5 -91q-2 -34 -17 -60t-49 -26q-25 0 -38 15t-13 55q0 18 9.5 50.5t25.5 72t36 82.5l40 82l38.5 72l37 64.5l38.5 64l43 69.5h-255q-25 0 -43.5 -13t-31.5 -31.5t-21 -38.5
t-12 -35l-30 5l60 257h28l8 -56h386v-19v0z" />
    <glyph glyph-name="eight" unicode="8" horiz-adv-x="558" 
d="M411 142q0 34 -17.5 58.5t-45.5 42.5t-62.5 29t-68.5 18q-37 -20 -60.5 -62t-23.5 -89q0 -50 32.5 -83.5t102.5 -33.5q27 0 53 7.5t46 22.5t32 37.5t12 52.5zM409 486q0 49 -32.5 75.5t-89.5 26.5q-56 0 -89.5 -28.5t-33.5 -72.5q0 -59 44.5 -90t127.5 -45q42 17 57.5 54
t15.5 80zM498 178q0 -45 -21 -81t-55 -60.5t-77 -38t-86 -13.5q-44 0 -81 11.5t-63 32t-40.5 47.5t-14.5 59t12 59.5t30 49t39 36t40 21.5v5q-24 12 -43 24.5t-31.5 28.5t-19 37.5t-6.5 50.5q0 39 18 71.5t47 56t65.5 36.5t74.5 13q88 0 138 -40t50 -106q0 -17 -6 -36
t-19 -38t-32 -35.5t-45 -27.5v-5q20 -8 42 -20t41 -30t31 -44.5t12 -63.5z" />
    <glyph glyph-name="nine" unicode="9" horiz-adv-x="565" 
d="M411 397q0 47 -11.5 82t-29.5 58.5t-41.5 35t-47.5 11.5q-38 0 -61.5 -17.5t-36.5 -43.5t-17 -57.5t-4 -59.5q0 -88 28 -130.5t91 -42.5q19 0 42 8t42.5 27t32.5 50.5t13 78.5zM506 323q0 -82 -23.5 -159t-68.5 -136.5t-109.5 -95.5t-146.5 -36q-33 0 -58.5 9.5t-42 24.5
t-25 32.5t-8.5 32.5q0 31 12.5 46t41.5 15q18 0 27 -9.5t14 -23.5t8 -29.5t8 -27.5q8 -17 25.5 -22.5t38.5 -5.5q43 0 78.5 25.5t62 69.5t43.5 102.5t23 124.5l-7 1q-23 -31 -62 -56t-100 -25q-35 0 -67 13.5t-57.5 39.5t-40.5 65t-15 89q0 40 14 81.5t42 74.5t70 54t98 21
q40 0 80 -14t72.5 -48t52.5 -91t20 -142z" />
    <glyph glyph-name="colon" unicode=":" horiz-adv-x="332" 
d="M233 58q0 -28 -19.5 -47t-47.5 -19t-47.5 19t-19.5 47t19.5 47.5t47.5 19.5t47.5 -19.5t19.5 -47.5zM233 387q0 -28 -19.5 -47t-47.5 -19t-47.5 19t-19.5 47t19.5 47.5t47.5 19.5t47.5 -19.5t19.5 -47.5z" />
    <glyph glyph-name="semicolon" unicode=";" horiz-adv-x="332" 
d="M237 18q0 -35 -15.5 -65t-37 -54.5t-45.5 -42.5t-42 -28l-21 33q21 12 40 26t34 31t25 37.5t12 46.5h-27q-39 0 -54 20t-15 43q0 21 16.5 40t45.5 19q45 0 64.5 -29t19.5 -77zM226 390q0 -26 -15 -47t-46 -21q-29 0 -45.5 19t-16.5 51q0 29 18.5 46t44.5 17
q29 0 44.5 -20t15.5 -45z" />
    <glyph glyph-name="less" unicode="&#x3c;" horiz-adv-x="560" 
d="M55 237v46l442 205v-57l-374 -171l374 -171v-57z" />
    <glyph glyph-name="equal" unicode="=" horiz-adv-x="580" 
d="M69 143v52h442v-52h-442zM69 325v52h442v-52h-442z" />
    <glyph glyph-name="greater" unicode="&#x3e;" horiz-adv-x="560" 
d="M63 32v57l374 171l-374 171v57l442 -205v-46z" />
    <glyph glyph-name="question" unicode="?" horiz-adv-x="482" 
d="M262 54q0 -28 -19.5 -46.5t-47.5 -18.5t-47.5 18.5t-19.5 46.5t19.5 47.5t47.5 19.5t47.5 -19.5t19.5 -47.5zM432 483q0 -42 -17 -78t-46 -63t-68.5 -44.5t-85.5 -23.5l-3 -96h-38v172q29 4 58 12t52.5 23.5t38.5 41t15 64.5q0 44 -9.5 73.5t-25.5 47.5t-38 26t-47 8
q-20 0 -39 -5t-28 -16q2 -6 6 -14t4 -38q0 -13 -6 -22.5t-15 -15.5t-19 -8.5t-17 -2.5q-26 0 -38.5 16.5t-12.5 40.5q0 19 11.5 37t33 32.5t52.5 23.5t70 9q53 0 92.5 -15t66 -42t40 -63.5t13.5 -79.5z" />
    <glyph glyph-name="at" unicode="@" horiz-adv-x="1000" 
d="M615 323q-6 38 -21 56t-44 18q-30 0 -55.5 -23.5t-44 -59.5t-29 -77.5t-10.5 -77.5q0 -26 3.5 -42.5t9.5 -26t13.5 -13t15.5 -3.5q19 0 34.5 7.5t28.5 20t24 28t20 31.5l55 162v0zM955 114q-23 -77 -64 -138t-98 -103.5t-128.5 -65t-153.5 -22.5q-81 0 -158.5 25
t-137.5 74.5t-96.5 123.5t-36.5 171q0 91 35 176.5t99.5 152.5t155.5 107.5t202 40.5q86 0 149 -27.5t104 -72.5t60.5 -103t19.5 -119q0 -65 -21 -120.5t-56.5 -95.5t-82 -62.5t-98.5 -22.5q-41 0 -66.5 20.5t-28.5 59.5l-3 1q-22 -34 -51.5 -56.5t-60.5 -22.5
q-21 0 -41 6.5t-35.5 21.5t-25.5 40t-10 63q0 31 15 76t44.5 85.5t72 69.5t96.5 29q26 0 46 -15t25 -45h3l20 54h70l-90 -258q-5 -12 -7.5 -27t-2.5 -25q0 -25 11 -36.5t30 -11.5q38 0 76 19.5t68.5 55.5t49.5 87.5t19 115.5q0 57 -19.5 108t-57.5 89.5t-94 61t-130 22.5
q-73 0 -144 -29t-127.5 -84.5t-91 -137t-34.5 -186.5q0 -86 26 -152t71 -111.5t106.5 -69t132.5 -23.5q165 0 269 77t151 217l24 -8v0z" />
    <glyph glyph-name="A" unicode="A" horiz-adv-x="697" 
d="M320 547l-105 -267h211zM406 0v33q13 1 30.5 3t33 5.5t26.5 8.5t11 11q0 12 -4 23l-60 153h-245q-11 -27 -21 -54.5t-17 -50.5q-11 -35 -11 -56q0 -12 12.5 -19.5t30.5 -12.5t37.5 -7.5t32.5 -3.5v-33h-285v33q14 1 35 5.5t35 12.5q18 11 32 26.5t25 41.5l55.5 135.5
l57.5 145l58.5 148l58.5 146.5h43l74 -189l67 -170.5l54.5 -139.5l37.5 -96q6 -15 16.5 -26.5t28.5 -22.5q14 -8 33 -12t33 -5v-33h-315z" />
    <glyph glyph-name="B" unicode="B" horiz-adv-x="669" 
d="M499 203q0 61 -40.5 100.5t-118.5 39.5h-19q-11 0 -23.5 -0.5l-24 -1t-18.5 -0.5v-244q5 -34 27 -47t67 -13t74 14.5t46 38t23.5 53.5t6.5 60zM466 525q0 37 -11.5 60.5t-30 37t-41.5 18.5t-46 5q-13 0 -38.5 -0.5t-43.5 -1.5v-264h62q41 0 69.5 11t46 30t25.5 45.5
t8 58.5zM622 181q0 -48 -22.5 -82.5t-57 -56t-74.5 -32t-76 -10.5h-348v33q7 0 17.5 1.5l21.5 3t20.5 3.5t14.5 4q18 7 24.5 19t6.5 29v491q0 17 -6.5 29.5t-24.5 20.5q-16 7 -36 11t-34 5v33h342q28 0 62 -6.5t64 -22t50 -42t20 -66.5q0 -42 -13.5 -71t-37 -48.5t-55 -32
t-67.5 -22.5v-9q27 -3 63 -13.5t68.5 -31.5t55 -54.5t22.5 -82.5z" />
    <glyph glyph-name="C" unicode="C" horiz-adv-x="655" 
d="M642 173q-15 -35 -38.5 -68.5t-56.5 -60t-77 -43t-101 -16.5q-74 0 -135 24.5t-104.5 70t-67.5 109.5t-24 144q0 77 26.5 143.5t74 115t112 76.5t139.5 28q21 0 43 -4.5t42 -12t37.5 -17.5t28.5 -20l30 51h41l4 -255h-34q-14 42 -32 81.5t-44.5 70t-62.5 49t-84 18.5
q-38 0 -74.5 -18.5t-64.5 -57t-45 -98t-17 -142.5q0 -66 19 -120t52 -93t76.5 -60.5t92.5 -21.5q46 0 79 10.5t57.5 29.5t42 45t32.5 58l33 -16v0z" />
    <glyph glyph-name="D" unicode="D" horiz-adv-x="781" 
d="M620 338q0 68 -20 124.5t-56 97t-87.5 63t-114.5 22.5h-21q-11 0 -23 -0.5l-23.5 -1t-19.5 -0.5v-527q5 -37 28 -57t81 -20q66 0 114 21.5t79.5 60.5t47 94t15.5 123zM743 337q0 -87 -34.5 -151t-90 -105t-126 -61t-142.5 -20h-306v33q7 0 18 0.5t21.5 2t20 3t14.5 3.5
q18 7 24.5 19.5t6.5 29.5v493q0 17 -6.5 30t-24.5 21t-37 11t-33 4v33h322q34 0 75 -6.5t82.5 -22t80.5 -41.5t69 -64.5t48 -91t18 -120.5z" />
    <glyph glyph-name="E" unicode="E" horiz-adv-x="668" 
d="M631 0h-592v33q7 0 18 1t23 2.5t22.5 3.5t15.5 4q18 7 24.5 19.5t6.5 29.5v491q0 17 -6 29t-25 20q-7 3 -18 6t-22 5l-21.5 4t-17.5 2v33h551v-165h-37q-4 16 -15.5 37t-26.5 39.5t-32 32t-33 15.5q-18 2 -38.5 3t-44.5 1h-108v-273h80q42 0 58.5 11t25.5 20q6 6 11 16.5
t9 23t7 25t4 22.5h37v-279h-37q-1 11 -4 25t-7.5 27t-10 24t-9.5 16l-11 10.5t-15.5 10t-23.5 7.5t-34 3h-80v-205q0 -31 4.5 -49t17 -27.5t36 -12t61.5 -2.5h42q24 0 45.5 2t39.5 7t27 14q11 12 24 31t24 39.5t20 39.5t13 30h35z" />
    <glyph glyph-name="F" unicode="F" horiz-adv-x="614" 
d="M560 511q-4 16 -15.5 38t-26.5 42t-32 34.5t-33 16.5q-18 2 -38.5 3t-44.5 1h-115v-276h82q38 0 58.5 11t30.5 20q11 10 19.5 34.5t11.5 52.5h37v-281h-37q-1 11 -4 25t-7 27.5t-9.5 25t-10.5 16.5q-10 10 -32 20.5t-57 10.5h-82v-236q0 -17 7 -29t24 -20q4 -2 14 -4
l21.5 -4.5t22.5 -4t18 -1.5v-33h-323v33q7 0 18 1l23 2t22.5 2.5t15.5 3.5q18 7 24.5 19.5t6.5 29.5v493q0 17 -6 29t-25 20q-7 3 -18 6t-22 5l-21.5 4t-17.5 2v33h558v-172h-37z" />
    <glyph glyph-name="G" unicode="G" horiz-adv-x="748" 
d="M754 273q-14 -2 -35.5 -4.5t-35.5 -8.5q-18 -8 -24 -21.5t-6 -30.5v-227l-23 -4l-52 58l-49 -17t-57.5 -16.5t-63 -12t-63.5 -4.5q-55 0 -109.5 22t-98.5 65t-71.5 107t-27.5 147q0 78 28.5 145.5t79 117.5t119.5 78.5t150 28.5q21 0 44.5 -4.5t45 -12t40 -17.5t30.5 -20
l32 51h39l5 -250h-33q-13 41 -33 79.5t-49 68t-68.5 47.5t-91.5 18q-43 0 -82 -20.5t-69 -61.5t-47.5 -101.5t-17.5 -139.5q0 -67 17.5 -123t48 -96.5t71 -63.5t87.5 -23q82 0 124 33t47 83v56q0 20 -6.5 35.5t-26.5 23.5q-9 3 -23 6t-28.5 4.5t-27.5 3t-20 1.5v34h331v-34
v0z" />
    <glyph glyph-name="H" unicode="H" horiz-adv-x="855" 
d="M497 0v33q7 0 17 1l20.5 2t20 2.5t14.5 3.5q18 7 24.5 19.5t6.5 29.5v244h-345v-239q0 -17 7 -29t24 -20q4 -2 13.5 -4t20 -4.5t21 -4t17.5 -1.5v-33h-310v33q14 1 37 3t33 6q18 7 24.5 19.5t6.5 29.5v493q0 17 -6.5 29t-24.5 20q-13 5 -34.5 10.5t-35.5 6.5v33h310v-33
q-14 -1 -36 -4t-36 -8q-19 -6 -25 -19t-6 -30v-212h345v207q0 17 -7 29t-24 20q-13 5 -35.5 10.5t-36.5 6.5v33h310v-33q-14 -1 -35 -4t-35 -8q-19 -6 -25 -19t-6 -30v-493q0 -17 7 -29t24 -20q4 -2 13 -4.5t19.5 -4.5t20.5 -3.5t17 -1.5v-33h-310z" />
    <glyph glyph-name="I" unicode="I" horiz-adv-x="408" 
d="M47 0v33q7 0 17.5 1l21 2t20 2.5t14.5 3.5q18 7 24.5 19t6.5 29v495q0 17 -6 28.5t-25 19.5q-14 5 -36.5 10.5t-36.5 6.5v33h314v-33q-14 -1 -36.5 -4t-36.5 -8q-19 -6 -25 -18.5t-6 -29.5v-495q0 -17 7 -28.5t24 -19.5q4 -2 13.5 -4l20.5 -4.5t21.5 -4t17.5 -1.5v-33
h-314z" />
    <glyph glyph-name="J" unicode="J" horiz-adv-x="496" 
d="M469 650q-14 -1 -38 -4t-38 -8q-19 -6 -25 -19t-6 -30v-403q0 -27 -14 -62t-42 -66.5t-70 -53t-97 -21.5q-40 0 -66.5 9t-42.5 23t-22.5 30.5t-6.5 31.5q0 29 19 50.5t50 21.5t48 -18.5t17 -45.5q0 -40 -41 -63v-5q3 -1 9 -1.5t9 -0.5q50 0 78.5 17t43 45.5t18.5 65.5
t4 76v365q0 17 -6.5 29t-24.5 20q-17 8 -41.5 12t-39.5 5v33h325v-33v0z" />
    <glyph glyph-name="K" unicode="K" horiz-adv-x="740" 
d="M406 0v33q15 1 32 2.5t31.5 5.5t23.5 10t9 15t-13 28.5t-33.5 44.5t-46 52.5l-51 54.5l-49 50t-38.5 39h-16v-239q0 -17 7 -29t24 -20q4 -2 13.5 -4t20 -4.5t21 -4t17.5 -1.5v-33h-310v33q14 1 37 3t33 6q18 7 24.5 19.5t6.5 29.5v493q0 17 -6.5 29t-24.5 20
q-13 5 -34.5 10.5t-35.5 6.5v33h310v-33q-14 -1 -36 -4t-36 -8q-19 -6 -25 -19t-6 -30v-235h6q49 39 94 79.5t79.5 77t55 66.5t20.5 48q0 8 -10 13t-23 7.5t-26 3.5t-20 1v33h288v-33q-7 0 -24 -1t-37 -4.5t-41 -12t-35 -23.5l-58.5 -63l-52 -55l-52 -52t-58.5 -54l70.5 -73
l60 -64.5l57 -63.5l60.5 -71q37 -45 91 -67q14 -6 36 -9t36 -4v-33h-366z" />
    <glyph glyph-name="L" unicode="L" horiz-adv-x="631" 
d="M617 0h-571v33q7 0 17 1t20.5 2.5t20 3t14.5 3.5q18 7 24.5 20t6.5 30v489q0 17 -6 29.5t-25 20.5q-14 6 -36 11.5t-36 6.5v33h313v-33q-14 -1 -36.5 -4.5t-36.5 -8.5q-19 -6 -25 -19.5t-6 -30.5v-458q0 -32 3.5 -50.5t15.5 -27.5t35.5 -11.5t64.5 -2.5q18 0 39 1t40.5 4
t34.5 8t23 13q10 10 23.5 29t26 39.5t23 40t14.5 32.5h34z" />
    <glyph glyph-name="M" unicode="M" horiz-adv-x="966" 
d="M593 0v33q7 0 19.5 1t25.5 2.5t25 3.5t17 5q33 17 33 51v494l-255 -579h-24q-9 29 -24 68t-29 71l-189 454v-404q0 -63 8.5 -93t25.5 -44q6 -5 20 -10.5t29 -9.5t28.5 -7t20.5 -3v-33h-305v33q6 1 18 2.5t25.5 4t27 7t22.5 10.5q18 13 25.5 44.5t7.5 93.5v346
q0 31 -8 50.5t-23 31.5q-18 14 -44 20t-46 7v33h240l218 -508l186 423q12 28 17 52.5t6 32.5h231v-33q-14 -1 -37 -4t-37 -8q-19 -6 -25 -19t-6 -30v-493q0 -17 7 -29t24 -20q4 -2 14 -4.5t21 -4.5t22 -3.5t18 -1.5v-33h-330z" />
    <glyph glyph-name="N" unicode="N" horiz-adv-x="798" 
d="M802 650q-7 0 -20 -2.5t-27 -6t-26.5 -7.5t-18.5 -8q-20 -13 -26.5 -45.5t-6.5 -88.5v-499h-42l-443 558v-350q0 -63 8.5 -93t25.5 -44q6 -5 20.5 -10.5t30.5 -10t30.5 -7.5t21.5 -3v-33h-310v33q7 0 20.5 3t28.5 7t27.5 8.5t16.5 7.5q18 13 25.5 43.5t7.5 93.5v332
q0 22 -8.5 44.5t-23.5 34.5q-9 7 -23 14.5t-29.5 13.5t-30 10.5t-24.5 4.5v33h211l413 -520v323q0 60 -8.5 92t-25.5 43q-7 4 -20.5 9t-29 9.5t-29.5 7.5t-23 3v33h308v-33v0z" />
    <glyph glyph-name="O" unicode="O" horiz-adv-x="777" 
d="M617 343q0 59 -12.5 115.5t-39.5 100.5t-70.5 71t-105.5 27q-107 0 -168 -83.5t-61 -234.5q0 -65 14 -122t42 -99.5t71 -67t102 -24.5q58 0 101 24t71 67t42 100.5t14 125.5zM738 346q0 -78 -24.5 -145t-79.5 -121q-49 -45 -110 -70.5t-139 -25.5q-69 0 -129.5 24
t-109.5 70q-50 47 -78.5 110.5t-28.5 145.5q0 164 97 261q51 52 115.5 78t137.5 26q71 0 134 -24.5t120 -79.5q45 -45 70 -110t25 -139z" />
    <glyph glyph-name="P" unicode="P" horiz-adv-x="623" 
d="M467 494q0 28 -6.5 55t-23 48.5t-44 34.5t-70.5 13h-68v-297h49q54 0 86 16t49.5 39t22.5 48t5 43zM591 519q0 -54 -22 -94t-58.5 -66t-83 -38.5t-94.5 -12.5h-78v-215q0 -17 6.5 -30t24.5 -20q10 -4 35 -6.5t44 -3.5v-33h-319v33q7 0 17 1t20.5 2.5t20 3t14.5 3.5
q18 7 24.5 20t6.5 30v493q0 17 -6 31t-25 20t-40.5 9t-35.5 4v33h335q44 0 83 -11t68 -32t46 -51.5t17 -69.5z" />
    <glyph glyph-name="Q" unicode="Q" horiz-adv-x="785" 
d="M457 30q-6 77 -33.5 107t-73.5 30q-7 0 -20 -3.5t-27.5 -13t-28 -27t-22.5 -44.5q52 -56 137 -56q18 0 36 2.5zM617 343q0 59 -12.5 115.5t-39.5 100.5t-70.5 71t-105.5 27q-107 0 -168 -83.5t-61 -234.5q0 -71 14 -131t48 -104q13 33 32 55t41 35.5t46 19t47 5.5
q29 0 55 -10t47 -27.5t36.5 -41t24.5 -50.5q35 42 50.5 106.5t15.5 146.5zM858 -16q-10 -15 -30 -37.5t-47 -43.5t-60.5 -35.5t-70.5 -14.5q-28 0 -56.5 7t-53.5 24t-45.5 44.5t-31.5 69.5q-20 -6 -40 -9.5t-38 -3.5q-69 0 -129.5 23.5t-109.5 69.5q-50 47 -78.5 110.5
t-28.5 145.5q0 164 97 261q51 52 115.5 78t137.5 26q71 0 134 -24.5t120 -79.5q45 -45 70 -110t25 -139q0 -94 -41 -170t-132 -130q8 -38 25.5 -61.5t39 -37t45 -18.5t43.5 -5q17 0 33.5 8t31.5 20t27 26.5t20 27.5l28 -22v0z" />
    <glyph glyph-name="R" unicode="R" horiz-adv-x="724" 
d="M480 517q0 34 -11 58.5t-29.5 40t-44 22.5t-53.5 7h-87v-279h64q33 0 62.5 10.5t51.5 30t34.5 47.5t12.5 63zM525 0q-11 55 -24 101t-33 97q-11 27 -27.5 50.5t-37.5 41t-46 27.5t-51 10h-51v-234q0 -17 6.5 -30t24.5 -20q5 -2 15 -3.5l21 -3t22 -2.5t18 -1v-33h-316v33
q7 0 17 1t20.5 2.5t20 3t14.5 3.5q18 7 24.5 20t6.5 30v494q0 17 -6 30.5t-25 19.5q-14 5 -36 8.5t-36 4.5v33h348q38 0 75.5 -9t67 -27.5t48 -48t18.5 -71.5q0 -41 -14.5 -69t-40.5 -47.5t-61 -33t-75 -24.5v-10q22 -5 46.5 -14.5t47.5 -24.5t42 -36.5t31 -51.5
q6 -15 12.5 -33.5l12 -35.5l10 -30.5t6.5 -18.5q6 -18 14 -29t16.5 -16.5t17 -8t15.5 -3.5q32 -6 61 -8v-33h-219z" />
    <glyph glyph-name="S" unicode="S" horiz-adv-x="559" 
d="M521 195q0 -46 -18 -84t-49 -65.5t-73.5 -43t-90.5 -15.5q-61 0 -103.5 16t-65.5 34l-35 -47h-34l-7 244h33q15 -40 34.5 -77t46 -65.5t61 -46t81.5 -17.5q67 0 95 33t28 87q0 41 -24 74.5t-69 51.5q-21 9 -38.5 15.5l-33.5 13l-33 14l-38 16.5q-58 26 -90.5 68.5
t-32.5 109.5q0 40 16 73.5t43.5 58.5t65 39t80.5 14q19 0 40 -4t41 -11t37.5 -16t30.5 -19l34 47h34l5 -237h-32q-15 42 -31.5 78.5t-39.5 63.5t-55.5 42t-79.5 15q-11 0 -28 -4t-32.5 -15t-27 -29.5t-11.5 -47.5q0 -44 21 -71t63 -50q37 -20 69.5 -31t66.5 -27
q32 -15 59 -30.5t46.5 -36.5t30 -49.5t10.5 -68.5z" />
    <glyph glyph-name="T" unicode="T" horiz-adv-x="644" 
d="M601 499q-4 16 -15.5 40t-26.5 46t-32.5 38.5t-33.5 18.5q-18 2 -40.5 3t-40.5 1h-37v-547q0 -17 7 -29.5t24 -20.5q4 -2 15 -4.5t23.5 -5t24.5 -4.5t19 -2v-33h-332v33q7 0 18.5 1t24 2.5t23.5 3.5t16 4q18 7 24.5 20t6.5 30v552h-37q-14 0 -38.5 -1t-42.5 -3
q-16 -2 -33.5 -18.5t-32.5 -38.5t-26.5 -46t-15.5 -40h-34v184h626v-184h-34z" />
    <glyph glyph-name="U" unicode="U" horiz-adv-x="798" 
d="M789 650q-7 0 -19 -2t-25.5 -5t-26.5 -7t-21 -9q-20 -13 -26.5 -49.5t-6.5 -83.5v-294q0 -61 -26 -102.5t-65 -66.5t-84.5 -36t-84.5 -11q-66 0 -116 16t-83.5 43t-51 62.5t-17.5 74.5v404q0 17 -7 29t-24 21q-14 7 -36 11t-34 5v33h311v-33q-14 -1 -36 -4t-36 -8
q-19 -6 -25 -19t-6 -30v-379q0 -27 6.5 -57.5t25.5 -56t54.5 -42.5t94.5 -17q60 0 97.5 18t58.5 44.5t28.5 57.5t7.5 57v274q0 112 -34 134q-9 6 -23 11t-28.5 8.5t-28 6t-22.5 2.5v33h309v-33v0z" />
    <glyph glyph-name="V" unicode="V" horiz-adv-x="683" 
d="M709 650q-14 -1 -32.5 -6t-32.5 -13q-20 -11 -30.5 -25.5t-21.5 -37.5l-27 -62.5l-37.5 -87l-44 -103.5l-47.5 -111l-47 -110.5l-42 -101.5h-42l-68 189l-61.5 170l-50.5 138.5l-34 94.5q-11 29 -45 49q-14 8 -33 12t-33 5v33h310v-33q-13 -1 -30 -2t-32 -4t-25 -7.5
t-10 -12.5q0 -12 5 -25l21 -57.5l36.5 -102l49.5 -136.5l59 -160l47 110.5l44 103.5l38 90.5l29 70.5q17 43 20 61.5t3 27.5q0 11 -11.5 18.5t-29 12.5t-37.5 8t-37 4v33h279v-33v0z" />
    <glyph glyph-name="W" unicode="W" horiz-adv-x="1000" 
d="M1022 650q-14 -1 -32.5 -6t-32.5 -13q-20 -11 -31.5 -25t-20.5 -38l-41 -112.5l-51.5 -144l-56.5 -160l-56 -159.5h-41l-87.5 285l-71.5 224l-186 -509h-43l-58 189l-52 170l-42.5 138.5l-28.5 94.5q-8 29 -40 49q-14 8 -32.5 12t-32.5 5v33h305v-33q-13 -1 -30 -2
t-32.5 -4t-26 -7.5t-10.5 -12.5q0 -5 1 -12.5t3 -12.5l17 -56l29.5 -95.5l40 -129l49.5 -156.5l147 399q0 22 -8.5 42t-31.5 31q-7 4 -18 6.5t-23 4.5t-23 3.5t-18 1.5v33h311v-33q-13 -1 -29.5 -2t-31.5 -4t-25 -8t-10 -12q0 -5 1 -12.5t3 -12.5l17.5 -54l31 -94.5
l42.5 -128.5l51 -156l71 204t47 147q11 39 15.5 58t4.5 32q0 12 -10.5 19.5t-26 12.5t-34.5 7.5t-36 3.5v33h274v-33v0z" />
    <glyph glyph-name="X" unicode="X" horiz-adv-x="764" 
d="M403 0v33q15 1 33 1.5t33.5 3.5t26 9.5t10.5 18.5t-14.5 37.5t-37 57.5l-49 67.5l-50.5 67.5l-57 -71l-53 -69t-39 -56.5t-15 -33.5q0 -12 8.5 -18.5t21.5 -9.5t29.5 -3.5t31.5 -1.5v-33h-285v33q14 1 35.5 4t35.5 9q29 13 48 29t37 38l42 52l40 50.5l42 54l49 61.5
l-49.5 69l-43.5 61l-41.5 56l-41.5 55q-18 23 -33 37t-43 28q-5 3 -15 5t-21 3.5l-21.5 3t-17.5 1.5v33h365v-33q-15 -1 -33 -1.5t-33.5 -3.5t-25.5 -9.5t-10 -18.5q0 -11 12 -33t31 -50.5l43 -61.5l49 -66q65 79 106 135t41 76q0 11 -8.5 17t-21.5 9.5t-29.5 4.5l-31.5 2
v33h285v-33q-14 -1 -35.5 -4t-35.5 -9q-15 -6 -26 -12.5t-20.5 -14t-18.5 -17.5l-20 -23l-38 -47l-37 -46.5l-39 -49l-43 -54.5l112.5 -154.5l78.5 -105.5q13 -17 32.5 -34.5t44.5 -34.5q4 -3 14 -5t21 -3l22 -2t18 -1v-33h-365z" />
    <glyph glyph-name="Y" unicode="Y" horiz-adv-x="627" 
d="M661 650q-5 0 -13 -2t-16.5 -5l-16.5 -6t-12 -6l-16.5 -10t-12.5 -9t-12.5 -12.5l-16.5 -19.5q-20 -26 -38.5 -52.5t-36.5 -56.5l-36.5 -64l-40.5 -73q-15 -27 -25 -57t-10 -55v-123q0 -17 7 -29.5t24 -20.5q4 -2 15 -4.5t23.5 -5t24.5 -4.5t19 -2v-33h-332v33
q7 0 18.5 1t24 2.5t23.5 3.5t16 4q18 7 24.5 20t6.5 30v164q0 15 -7.5 33.5t-18.5 41.5l-65 123l-62 110q-16 27 -32 42t-34 26q-14 8 -32 11.5t-32 4.5v33h322v-33q-13 -1 -30.5 -1.5t-33 -3t-26.5 -7t-11 -12.5q0 -5 11.5 -29t31.5 -62l48.5 -89l61.5 -110l64.5 102.5
t50.5 84.5t33 60.5t12 29.5q0 11 -9.5 18t-24.5 10.5t-33 5.5t-35 3v33h260v-33v0z" />
    <glyph glyph-name="Z" unicode="Z" horiz-adv-x="628" 
d="M596 0h-591v12l462 634h-170q-26 0 -46 -1t-35 -4q-20 -4 -41 -21t-39.5 -40t-33.5 -47.5t-22 -43.5h-34l21 194h539v-12l-462 -634h192q22 0 45 1t43 4t35.5 8t23.5 13q16 15 31.5 34.5t29 40.5t24.5 41t17 36h34z" />
    <glyph glyph-name="bracketleft" unicode="[" horiz-adv-x="475" 
d="M80 -136v849h335v-44h-248v-761h248v-44h-335z" />
    <glyph glyph-name="backslash" unicode="\" horiz-adv-x="420" 
d="M348 -212l-313 951l51 13l312 -951z" />
    <glyph glyph-name="bracketright" unicode="]" horiz-adv-x="475" 
d="M60 -136v44h248v761h-248v44h335v-849h-335z" />
    <glyph glyph-name="asciicircum" unicode="^" horiz-adv-x="883" 
d="M851 593q0 -60 -40 -94t-111 -34q18 -10 34 -22.5t27 -31.5t17.5 -46t6.5 -64q0 -47 -22.5 -102.5t-72 -103.5t-129 -80.5t-193.5 -32.5q-64 0 -120.5 18t-98.5 50t-66 74.5t-24 92.5q0 33 9 56t23.5 40t33 30t38.5 25q-13 10 -25 21.5t-21 26.5t-14.5 34.5t-5.5 45.5
q0 23 11.5 47.5t32 45t48.5 33.5t61 13q74 0 119.5 -33t59.5 -89l-22 -13q-26 41 -51.5 60.5t-67.5 19.5q-51 0 -82.5 -33.5t-31.5 -85.5q0 -30 3 -47.5t15 -28.5q21 8 43.5 11.5t43.5 3.5q31 0 48 -12.5t17 -31.5q0 -16 -11 -28t-34 -12q-35 0 -58 11t-46 25l-15.5 -6.5
t-21.5 -14.5t-19.5 -25.5t-8.5 -39.5q0 -38 21.5 -74.5t63 -65t102 -46t137.5 -17.5q70 0 123.5 21t90.5 55t56 78t19 89t-12.5 76t-33.5 50.5t-48 28t-55 8.5q-21 0 -41.5 -6t-36.5 -17.5t-26 -28.5t-10 -39q0 -18 2 -29t8 -21q9 22 21 35.5t35 13.5q26 0 37 -16.5
t11 -30.5q0 -22 -12 -39t-49 -17q-45 0 -65.5 30.5t-20.5 85.5q0 40 17 66.5t43 42.5t56 22t57 6q10 0 25 -1t30.5 -1.5t30 -1.5t23.5 -1q21 0 38 7.5t29 19t18.5 25t6.5 26.5q0 17 -3.5 24.5t-11.5 11.5q-5 -12 -15 -26t-28 -14q-24 0 -34 13.5t-10 31.5q0 21 14 39t46 18
q22 0 36 -12t22 -28.5t11 -34.5t3 -30z" />
    <glyph glyph-name="underscore" unicode="_" horiz-adv-x="600" 
d="M-5 -157v49h610v-49h-610z" />
    <glyph glyph-name="grave" unicode="`" 
d="M344 534l-52.5 41.5l-40 30.5l-31 23t-24.5 19q-18 14 -27 25t-9 30q0 14 11.5 26t28.5 12q19 0 33 -9t28 -34l37.5 -62.5t59.5 -89.5z" />
    <glyph glyph-name="a" unicode="a" horiz-adv-x="498" 
d="M309 257q-38 -11 -69.5 -23.5t-54.5 -28.5t-36 -38t-13 -52q0 -39 18.5 -57t50.5 -18q39 0 60.5 15t39.5 36l4 166v0zM507 119q-4 -71 -33 -100t-77 -29q-35 0 -55.5 16t-32.5 51h-3q-27 -32 -66.5 -50.5t-84.5 -18.5q-52 0 -84 30t-32 80q0 32 8.5 54.5t22 38t31 25.5
t36.5 17q43 17 91 32t80 32v45q0 7 -2 23.5t-10.5 33.5t-26 30t-48.5 13q-24 0 -41 -8t-24 -16q0 -11 4.5 -28t4.5 -34t-15.5 -30.5t-42.5 -13.5q-25 0 -35 17t-10 37q0 23 15 43t39 34.5t53 23t58 8.5q37 0 68.5 -5t55 -21t36.5 -46t13 -80q0 -34 -1 -69.5t-1.5 -67
t-1.5 -56.5t-1 -37q0 -5 2 -13t7.5 -16t14 -14t20.5 -6q20 0 27.5 23.5t8.5 51.5h32v0z" />
    <glyph glyph-name="b" unicode="b" horiz-adv-x="556" 
d="M419 228q0 36 -7.5 71t-24.5 62.5t-43.5 44.5t-64.5 17q-36 0 -61 -13t-43 -33v-271q4 -12 12.5 -26.5t22 -27.5t32 -22t44.5 -9q57 0 95 53t38 154zM521 229q0 -53 -19 -97.5t-50.5 -76.5t-72.5 -50.5t-85 -18.5q-50 0 -87.5 15.5t-60.5 28.5l-37 -56l-29 7q2 30 3 80.5
t1 104.5v468q0 16 -7.5 32.5t-19.5 24.5q-5 3 -13 5.5t-17.5 4l-19 3t-16.5 1.5v30l177 11l7 -7v-325l3 -1q9 9 22 20t30.5 20.5t38 15.5t44.5 6q43 0 81 -17.5t66 -49.5t44.5 -77.5t16.5 -101.5z" />
    <glyph glyph-name="c" unicode="c" horiz-adv-x="450" 
d="M449 107q-14 -25 -34.5 -46.5t-45 -37.5t-53 -25.5t-59.5 -9.5q-56 0 -98 18.5t-69.5 51t-41.5 77.5t-14 98q0 47 16 91t46 77.5t72 53.5t95 20q40 0 70 -9.5t50 -26t30 -38t10 -44.5q0 -64 -56 -64q-8 0 -17.5 2.5t-18 8t-14.5 15t-6 24.5q0 16 2 24.5t5 14.5t5 10.5
t2 11.5q-4 22 -20 29.5t-44 7.5q-23 0 -45.5 -10.5t-40.5 -34.5t-29 -63t-11 -96q0 -42 10 -78.5t29 -63t46 -41.5t61 -15q48 0 79 22t58 66l31 -20v0z" />
    <glyph glyph-name="d" unicode="d" horiz-adv-x="571" 
d="M384 360q-4 12 -12.5 26t-22 26t-33 20t-45.5 8q-29 0 -53.5 -14.5t-42.5 -42t-28.5 -67.5t-10.5 -90q0 -36 8 -70.5t26 -60.5t45.5 -42t66.5 -16q36 0 59 15t43 36v272zM392 -2l-7 7v43l-4 1q-8 -9 -21 -19.5t-30 -20t-37.5 -16t-44.5 -6.5q-44 0 -83 17.5t-68 50
t-46 79t-17 103.5q0 52 19 96t51 75.5t73.5 49t85.5 17.5q48 0 80 -12t41 -17v182q-2 16 -8 33t-18 25q-14 10 -40 14t-48 6v29l198 11l7 -7v-641q1 -18 7.5 -29.5t18.5 -19.5q9 -6 27 -7.5t32 -2.5v-30z" />
    <glyph glyph-name="e" unicode="e" horiz-adv-x="472" 
d="M345 290q0 27 -4 54t-14.5 48.5t-29.5 35t-48 13.5q-48 0 -81.5 -41t-35.5 -112l213 2v0zM452 109q-27 -54 -77 -87.5t-115 -33.5q-58 0 -100.5 19.5t-70.5 53.5t-41.5 78.5t-13.5 95.5q0 46 15 89.5t42.5 77t67.5 53.5t91 20q52 0 88.5 -16t59.5 -43t33 -62.5t10 -74.5
v-26h-309q0 -48 9 -87.5t27.5 -67.5t48 -43.5t71.5 -15.5q25 0 44.5 6t35 17t28 28t25.5 38l31 -19v0z" />
    <glyph glyph-name="f" unicode="f" horiz-adv-x="323" 
d="M427 659q0 -7 -3.5 -16t-10.5 -17t-17 -13.5t-23 -5.5q-9 0 -19 2t-18.5 7.5t-14.5 14t-6 21.5q0 11 3 27.5t3 27.5q-5 5 -11.5 6t-12.5 1q-24 0 -41.5 -10t-29.5 -34t-19 -63t-9 -96q0 -11 -0.5 -24.5t-0.5 -26.5h124v-44h-124v-330q0 -34 27 -44q11 -5 31 -7.5t34 -3.5
v-31h-254v31q14 1 23.5 2t20.5 4q27 9 27 44v335h-100v44h100v21q0 63 15.5 114.5t52.5 90.5q31 33 70 47t77 14q28 0 48 -7.5t33 -20t19 -28.5t6 -32z" />
    <glyph glyph-name="g" unicode="g" horiz-adv-x="513" 
d="M409 -79q0 9 -1.5 18.5t-6.5 19t-15 18t-28 13.5q-17 2 -52 4.5t-103 2.5q-54 -11 -76 -34.5t-22 -67.5q0 -15 8 -30.5t25.5 -27.5t46 -20t70.5 -8q73 0 113.5 27.5t40.5 84.5zM311 323q0 24 -4.5 45.5t-15 38t-26.5 26t-40 9.5t-40 -9.5t-25 -25t-13 -36.5t-4 -45
q0 -51 22.5 -84t60.5 -33q22 0 38 9t26.5 25t15.5 36.5t5 43.5zM513 426q0 -22 -11 -35.5t-31 -13.5q-25 0 -34 14.5t-9 45.5q-25 0 -38 -5t-24 -13v-3q18 -20 28 -46t10 -49q0 -33 -15 -60t-39 -45.5t-54 -29t-61 -10.5h-58q-12 -5 -23.5 -15t-11.5 -28q0 -19 10 -29
t25.5 -14.5t34.5 -5t37 -1.5q11 0 27 -1l32 -2t30.5 -2t22.5 -1q22 -1 45 -10.5t41.5 -27t30 -42.5t11.5 -57q0 -35 -15 -65t-46 -52.5t-78.5 -35.5t-111.5 -13q-59 0 -100.5 8.5t-67.5 25t-38 39.5t-12 52q0 21 8.5 40.5t26 34.5t45 24t65.5 10v7q-15 4 -31 10.5
t-29.5 16.5t-22.5 24.5t-9 36.5q0 18 7.5 32t19 24t25.5 17t26 12v6q-48 22 -75 54.5t-27 77.5q0 35 14 62.5t38.5 47t57 29.5t69.5 10q26 0 49 -4.5t41 -10.5t29.5 -10.5t15.5 -4.5q28 17 49.5 23.5t53.5 6.5q18 0 32.5 -14t14.5 -35z" />
    <glyph glyph-name="h" unicode="h" horiz-adv-x="580" 
d="M321 0v31q14 1 25 2t22 4q27 9 27 44v231q0 52 -25.5 79.5t-57.5 27.5q-27 0 -48.5 -8t-37 -19t-25.5 -23t-14 -21v-262q0 -32 27 -44q20 -10 47 -11v-31h-236v31q14 1 23.5 2t20.5 4q27 9 27 44v553q-2 16 -8.5 33t-18.5 25q-5 3 -13.5 5.5t-18 4t-19 2.5t-16.5 1v30
l178 11l7 -7v-346h2l29.5 28.5t34.5 26.5t43.5 19.5t56.5 7.5q70 0 102 -43t32 -115v-232q0 -32 26 -44q11 -5 20.5 -7t23.5 -3v-31h-236z" />
    <glyph glyph-name="i" unicode="i" horiz-adv-x="291" 
d="M35 0v31q14 1 23.5 2t20.5 4q27 9 27 44v280q-3 34 -27 50q-9 6 -27 10.5t-32 5.5v30l170 11l7 -7v-374q0 -35 27 -45q11 -5 20.5 -7.5t23.5 -3.5v-31h-233zM206 658q0 -26 -18 -45.5t-45 -19.5q-25 0 -43 18t-18 43q0 26 18 44.5t43 18.5q28 0 45.5 -17.5t17.5 -41.5z
" />
    <glyph glyph-name="j" unicode="j" horiz-adv-x="295" 
d="M208 41q0 -63 -13 -115t-50 -90q-31 -32 -61 -47t-69 -15q-50 0 -76.5 21.5t-26.5 53.5q0 17 15 35t41 18q20 0 38.5 -11.5t18.5 -37.5q0 -14 -4 -26t-4 -16q2 -1 10 -2.5t10 -1.5q23 0 38.5 11t24.5 35.5t13 64.5t4 98v341q-2 16 -8.5 30.5t-18.5 22.5q-5 3 -15.5 6
t-23 5.5t-24.5 4.5t-19 2v29l193 11l7 -7v-420v0zM215 658q0 -26 -18 -45.5t-45 -19.5q-25 0 -43 18t-18 43q0 26 18 44.5t43 18.5q28 0 45.5 -17.5t17.5 -41.5z" />
    <glyph glyph-name="k" unicode="k" horiz-adv-x="539" 
d="M389 0q-9 29 -25.5 66.5t-38 71.5t-46.5 57t-49 23q-20 0 -28.5 -5t-14.5 -10v-117q0 -34 27 -44q11 -5 22 -7.5t25 -3.5v-31h-236v31q14 1 23.5 2t20.5 4q27 9 27 44v552q-2 18 -8.5 34t-18.5 24q-11 8 -32 10.5t-35 3.5v30l178 11l7 -7v-505l37 35l40 38.5l39.5 39
l35.5 36.5q4 4 8.5 10.5t4.5 11.5q0 6 -6 11t-15 8t-20 5t-21 3v30h210v-29q-40 -11 -72 -28t-49 -32l-43.5 -38t-48.5 -46q37 -17 63 -41.5t46.5 -53.5t36.5 -61l33 -64q6 -11 18 -19t25 -13t24.5 -6t14.5 -1v-30h-159z" />
    <glyph glyph-name="l" unicode="l" horiz-adv-x="284" 
d="M26 0v31q14 1 23.5 2t20.5 4q27 9 27 44v550q-2 17 -8.5 33t-18.5 24q-5 3 -13.5 6t-19 5l-20.5 4t-17 2v30l181 11l7 -7v-652q0 -33 27 -45q11 -5 20.5 -7.5t23.5 -3.5v-31h-233z" />
    <glyph glyph-name="m" unicode="m" horiz-adv-x="879" 
d="M624 0v31q14 1 23 2t20 4q27 9 27 44v232q0 52 -24.5 79t-56.5 27q-27 0 -48 -8t-36 -19t-24.5 -23t-13.5 -20v-263q0 -33 26 -45q11 -5 20.5 -7t23.5 -3v-31h-230v31q14 1 22 2t19 4q27 9 27 44v232q0 52 -24.5 79t-56.5 27q-27 0 -48 -8t-36 -19.5t-24.5 -23.5
t-13.5 -20v-261q0 -33 27 -45q11 -5 21 -7.5t24 -3.5v-31h-234v31q14 1 23.5 2t20.5 4q27 9 27 44v282q-3 33 -27 49q-9 6 -23 10t-28 5v30l161 11l7 -7v-69h3q15 14 29.5 29t33 27t42.5 19.5t56 7.5q48 0 81 -25t48 -61l31 30t35 27.5t43.5 20.5t56.5 8q35 0 60 -12t41 -34
t23.5 -51.5t7.5 -65.5v-226q0 -33 26 -45q20 -8 47 -10v-31h-235z" />
    <glyph glyph-name="n" unicode="n" horiz-adv-x="589" 
d="M330 0v31q14 1 25 2t22 4q27 9 27 44v231q0 52 -25.5 79.5t-57.5 27.5q-27 0 -48.5 -8t-37 -19t-25.5 -23t-14 -21v-262q0 -32 27 -44q11 -5 22.5 -7.5t24.5 -3.5v-31h-236v31q14 1 23.5 2t20.5 4q27 9 27 44v280q-2 16 -8.5 30.5t-18.5 22.5q-9 6 -22 9t-27 4v30l160 11
l7 -7v-68h2l29 28.5t34 26.5t43 19.5t56 7.5q70 0 103 -43t33 -115v-232q0 -32 26 -44q11 -5 20.5 -7t23.5 -3v-31h-236z" />
    <glyph glyph-name="o" unicode="o" horiz-adv-x="528" 
d="M393 235q0 38 -6.5 75t-21.5 66t-39.5 47t-60.5 18q-39 0 -64.5 -19t-40 -48.5t-20.5 -65.5t-6 -71q0 -44 7 -83t23 -69t41 -47.5t60 -17.5q33 0 57.5 17t40 46.5t23 68.5t7.5 83zM494 236q0 -51 -15.5 -96.5t-45.5 -79.5t-73.5 -54t-100.5 -20q-45 0 -86 17t-72 48.5
t-49.5 76.5t-18.5 101q0 54 16.5 99.5t47.5 78t73.5 50.5t95.5 18q52 0 94.5 -18t72 -50.5t45.5 -76t16 -94.5z" />
    <glyph glyph-name="p" unicode="p" horiz-adv-x="568" 
d="M431 228q0 36 -7.5 71t-24.5 62.5t-43.5 44.5t-64.5 17q-36 0 -61 -14.5t-43 -35.5v-275q4 -12 12.5 -25t22 -24.5t32.5 -19t44 -7.5q57 0 95 52.5t38 153.5zM533 227q0 -53 -19 -96.5t-50.5 -75.5t-72.5 -49.5t-85 -17.5t-71 9t-44 22h-4v-154q0 -35 28 -46
q6 -2 15 -4.5t18.5 -4.5t19 -3.5t16.5 -1.5v-31h-269v31q14 1 29 3t26 5q14 5 20 17t6 29v504q-3 34 -26 50q-9 6 -25 9.5t-30 4.5v30l164 11l7 -6v-52l4 -1q9 9 22 20.5t30.5 21.5t38 17t44.5 7q43 0 81 -17.5t66 -50t44.5 -78.5t16.5 -102z" />
    <glyph glyph-name="q" unicode="q" horiz-adv-x="556" 
d="M384 362q-4 12 -12.5 26t-22 25.5t-33 19t-45.5 7.5q-29 0 -53.5 -14.5t-42.5 -42t-28.5 -67.5t-10.5 -90q0 -36 8 -70t25.5 -60.5t45.5 -42t67 -15.5q36 0 59 13t43 33v278zM301 -226v31q14 1 29.5 3t26.5 5q15 5 21 17t6 29v186l-3 1q-8 -9 -21 -19t-30 -18.5
t-37.5 -14.5t-44.5 -6q-44 0 -83 17.5t-68 50t-46 78.5t-17 103q0 52 19.5 96t51.5 75.5t74 49t86 17.5q32 0 56 -6t42 -13.5t30.5 -16t20.5 -12.5l43 62l26 -4q-1 -15 -2 -38t-2.5 -48t-2.5 -49t-1 -40v-443q0 -17 6.5 -29.5t20.5 -18.5q12 -5 28.5 -8.5t30.5 -5.5v-31
h-260z" />
    <glyph glyph-name="r" unicode="r" horiz-adv-x="402" 
d="M398 407q0 -28 -15 -48t-41 -20q-24 0 -37.5 11t-13.5 37q0 7 3 17.5t4 14.5q-19 0 -35.5 -7.5t-30 -18.5t-23 -23t-13.5 -20v-264q0 -34 27 -44q13 -5 32 -7.5t33 -3.5v-31h-254v31q14 1 23.5 2t20.5 4q27 9 27 44v280q-2 16 -8.5 30.5t-18.5 22.5q-9 6 -22 9t-27 4v30
l160 11l7 -7v-68h2q32 42 66.5 61t66.5 19q28 0 47.5 -18.5t19.5 -47.5z" />
    <glyph glyph-name="s" unicode="s" horiz-adv-x="410" 
d="M373 132q0 -34 -13.5 -61t-36.5 -46t-54 -29t-66 -10q-18 0 -36.5 4t-35 10t-29 13t-18.5 14l-10 -32h-34l-5 162h32q4 -19 15 -42.5t29 -44.5t42 -35t54 -14q53 0 73.5 21t20.5 59q0 40 -29 59.5t-87 36.5q-24 7 -48.5 18t-44.5 28t-32.5 41t-12.5 57q0 28 10.5 52.5
t30.5 42.5t48 28.5t63 10.5q29 0 57 -6.5t47 -20.5l8 28h32l7 -145h-32q-4 22 -13 41.5t-24 34.5t-35.5 24t-47.5 9q-39 0 -59 -18t-20 -47q0 -21 6.5 -34.5t21 -23.5t36.5 -18.5t52 -18.5q31 -10 56.5 -23t43.5 -30t28 -40.5t10 -54.5z" />
    <glyph glyph-name="t" unicode="t" horiz-adv-x="348" 
d="M345 124q-3 -28 -12 -52.5t-24.5 -42.5t-38.5 -28.5t-53 -10.5q-62 0 -92 35t-30 102v288h-93v45h95v145h87v-145h135v-45h-134v-275q0 -43 14.5 -67.5t56.5 -24.5q16 0 26 6.5t16 17t8.5 24.5t4.5 28h34v0z" />
    <glyph glyph-name="u" unicode="u" horiz-adv-x="572" 
d="M392 -2l-7 7v61h-3l-29 -28t-33 -25t-42 -18t-56 -7q-35 0 -59.5 12t-40.5 34t-23 52t-7 65v212q-2 19 -8 30.5t-18 19.5q-9 6 -22.5 9t-27.5 4v30l161 12l7 -7v-317q0 -52 23.5 -78.5t55.5 -26.5q27 0 47.5 8t35.5 19t24 22.5t14 19.5v258q-3 34 -26 50q-9 6 -27 7.5
t-38 2.5v30l175 12l7 -7v-364q3 -32 26 -48q9 -6 21.5 -7.5t26.5 -2.5v-30z" />
    <glyph glyph-name="v" unicode="v" horiz-adv-x="475" 
d="M491 433q-20 -4 -41.5 -16.5t-33.5 -39.5l-29 -67.5l-28 -65.5l-29 -68.5l-31 -74.5q-11 -26 -20 -50.5t-19 -57.5h-38l-45 112.5l-36 87.5l-35 84.5l-43 104.5q-9 21 -30.5 33.5t-43.5 15.5v31h222v-33q-9 0 -19 -1.5t-18.5 -3.5t-14 -6t-5.5 -10q0 -4 7 -21l18.5 -48.5
l25.5 -64.5l30 -74.5l31 -78.5h6l26 63l24 57.5l24 59l27 67.5q2 5 3.5 13.5t1.5 14.5q0 8 -8 14.5t-19.5 11t-22.5 7t-17 3.5v30h180v-29v0z" />
    <glyph glyph-name="w" unicode="w" horiz-adv-x="742" 
d="M760 432q-21 -2 -45.5 -18t-34.5 -42l-29.5 -73l-24.5 -62l-24.5 -62.5l-29.5 -75.5q-11 -26 -19 -49.5l-19 -56.5h-31l-63 169.5l-59 152.5q-22 -49 -42 -105t-42 -111q-11 -26 -19.5 -49.5l-19.5 -56.5h-33l-46.5 117l-37 93l-35 85l-39.5 93q-8 20 -30 34t-43 16v31
h216v-33q-9 0 -18 -1.5t-17 -3.5t-13 -6t-5 -10q0 -4 7 -21q7 -19 18.5 -47.5l25 -63l29 -73.5l31.5 -79h4l45.5 118l44.5 118q-2 5 -5 11t-9 17q-13 23 -29 32t-37 11v31h207v-32q-17 -1 -34.5 -4t-17.5 -16q0 -1 1.5 -7.5t5.5 -15.5l18 -49l24.5 -65l28.5 -74l29 -76h4
l27 71l23 61.5t20.5 57.5l20.5 59q5 15 5 26q0 9 -8 15.5t-18.5 10.5t-21 6t-16.5 2v30h180v-30v0z" />
    <glyph glyph-name="x" unicode="x" horiz-adv-x="476" 
d="M256 0v31q20 2 37 5t17 12q0 4 -5 13l-9 16l-32 47.5l-48 72.5l-44 -57.5t-43 -60.5q-10 -13 -10 -23q0 -8 7.5 -12.5t17.5 -7.5t20 -4.5t14 -1.5v-30h-176v29q43 16 62.5 30.5t27.5 25.5l41.5 52t64.5 84l-57.5 85.5l-57.5 84.5q-20 29 -38.5 34.5t-35.5 5.5v31h206v-31
q-15 0 -30.5 -2t-15.5 -8q0 -5 2.5 -9.5l6.5 -11.5t13 -20l19.5 -29.5l22.5 -34.5l24 -36l21 28.5l17 24.5l17 25.5l21 31.5q5 7 5 18q0 5 -6 9t-14 7t-16.5 5t-13.5 3v30h173v-29q-38 -11 -59.5 -25t-32.5 -27l-37 -47t-58 -78l67.5 -98.5l54.5 -80.5q7 -11 13 -18
t14 -12.5t20 -9t30 -6.5v-31h-217z" />
    <glyph glyph-name="y" unicode="y" horiz-adv-x="470" 
d="M488 433q-7 -1 -17.5 -6t-21.5 -12.5t-20.5 -17t-14.5 -20.5q-9 -20 -21.5 -50.5l-27.5 -66l-30.5 -73.5l-30.5 -73l-34.5 -87t-17.5 -42q-33 -76 -58 -118.5t-46 -63t-41 -25t-43 -4.5q-10 0 -23 3.5t-24 11.5t-19 21t-8 32q0 20 15.5 39t41.5 19q8 0 17.5 -2t17 -8
t12.5 -15.5t5 -24.5v-25q23 5 44.5 32.5t38.5 59.5q20 37 38 83l-44.5 111.5l-35 85l-34.5 82l-43 103.5q-9 21 -30.5 33.5t-43.5 15.5v31h219v-33q-9 0 -18.5 -1.5t-17.5 -4t-13 -6t-5 -9.5q0 -4 7 -21q7 -19 19 -48l26 -64.5l30 -74.5l32 -78h4l26 63l23 57l23 58.5
l27 67.5q2 5 4 13.5t2 14.5q0 7 -8 13.5t-18.5 11t-21.5 7.5t-17 4v30h176v-29v0z" />
    <glyph glyph-name="z" unicode="z" horiz-adv-x="442" 
d="M26 0v25l272 401h-54q-26 0 -50 -0.5t-44 -3t-33 -7.5q-15 -6 -26.5 -32t-19.5 -61h-27v140h367v-19l-276 -407q25 -1 44 -1h40t43.5 0.5t55.5 2.5q20 1 29.5 12.5t15.5 26.5l5.5 16.5l7.5 22.5t7.5 24t5.5 21h26v-161h-389z" />
    <glyph glyph-name="braceleft" unicode="{" horiz-adv-x="430" 
d="M398 -169q-52 0 -93.5 6.5t-70 25t-43.5 52t-15 87.5q0 31 8 65.5t8 63.5q0 36 -12 59t-33.5 36.5t-51 20t-64.5 9.5v63q36 3 65.5 9.5t50.5 20.5t33 36.5t12 58.5q0 29 -8 63.5t-8 65.5q0 54 15 87.5t43.5 52t70 25t93.5 6.5v-33q-23 -2 -46.5 -5t-42 -13.5t-30 -31.5
t-11.5 -58q0 -27 4.5 -55.5t4.5 -58.5q0 -53 -14.5 -86t-39 -53.5t-56.5 -31.5t-68 -18v-25q36 -7 68 -18t56.5 -31.5t39 -54t14.5 -85.5q0 -30 -4.5 -58.5t-4.5 -55.5q0 -37 11.5 -58t30 -31.5t42 -14t46.5 -4.5v-33v0z" />
    <glyph glyph-name="bar" unicode="|" horiz-adv-x="318" 
d="M133 -207v953h52v-953h-52z" />
    <glyph glyph-name="braceright" unicode="}" horiz-adv-x="430" 
d="M399 256q-35 -3 -64.5 -9.5t-51 -20t-33.5 -36.5t-12 -59q0 -29 8 -63.5t8 -65.5q0 -54 -15 -87.5t-43.5 -52t-70 -25t-93.5 -6.5v33q23 1 46.5 4.5t42 14t30 31.5t11.5 58q0 27 -4.5 55.5t-4.5 58.5q0 52 14.5 85.5t39 54t56.5 31.5t68 18v25q-36 7 -68 18t-56.5 31.5
t-39 53.5t-14.5 86q0 30 4.5 58.5t4.5 55.5q0 37 -11.5 58t-30 31.5t-42 13.5t-46.5 5v33q52 0 93.5 -6.5t70 -25t43.5 -52t15 -87.5q0 -31 -8 -65.5t-8 -63.5q0 -36 12 -58.5t33 -36.5t50.5 -20.5t65.5 -9.5v-63v0z" />
    <glyph glyph-name="asciitilde" unicode="~" horiz-adv-x="540" 
d="M484 326q-6 -22 -19 -44t-31.5 -40t-41 -29.5t-46.5 -11.5q-30 0 -53.5 7t-44 15l-38.5 15t-37 7q-38 0 -59.5 -12.5t-38.5 -44.5l-20 7q6 22 19 44t31.5 40t41 29.5t46.5 11.5q28 0 51.5 -7t44 -15l39.5 -15t38 -7q38 0 59.5 12.5t38.5 44.5l20 -7v0z" />
    <glyph glyph-name="quotesinglbase" unicode="&#x201a;" horiz-adv-x="185" 
d="M174 17q0 -32 -14 -58.5t-33.5 -46.5t-42 -35t-38.5 -24l-15 29q20 12 36.5 23t29.5 24.5t21 31t10 41.5h-25q-37 0 -51 18.5t-14 40.5q0 20 15.5 38t42.5 18q42 0 60 -27.5t18 -72.5z" />
    <glyph glyph-name="florin" unicode="&#x192;" horiz-adv-x="514" 
d="M522 536q0 -17 -12.5 -34t-38.5 -17q-22 0 -39 12t-17 37q0 11 2 21.5t7 26.5q-8 12 -22 12q-48 0 -81.5 -45.5t-51.5 -152.5l-10 -59h126l-9 -41h-124q-6 -36 -10 -62.5t-8.5 -51.5l-9.5 -52t-13 -63q-13 -57 -36.5 -110.5t-66.5 -91.5q-36 -33 -69 -45.5t-70 -12.5
q-30 0 -50.5 7.5t-33 20t-18.5 27.5t-6 30q0 20 12.5 35.5t38.5 15.5q23 0 39.5 -14.5t16.5 -41.5q0 -13 -4.5 -22t-10.5 -16q2 -7 7.5 -10t10.5 -3q55 0 88 46.5t57 156.5q18 85 27 146l17 111h-106l8 41h105q14 81 37.5 135t66.5 97q32 32 67 43.5t70 11.5q26 0 47 -8
t36 -20.5t23 -28.5t8 -31z" />
    <glyph glyph-name="quotedblbase" unicode="&#x201e;" horiz-adv-x="354" 
d="M173 14q0 -32 -14 -58t-34.5 -45.5t-43 -34t-38.5 -23.5l-14 28l37 23t30 25t21.5 31.5t10.5 41.5h-25q-37 0 -49.5 17t-12.5 39q0 20 15 38t42 18q42 0 58.5 -27.5t16.5 -72.5zM342 14q0 -32 -14 -58t-34.5 -45.5t-43 -34t-38.5 -23.5l-14 28l37 23t30 25t21.5 31.5
t10.5 41.5h-25q-37 0 -49.5 17t-12.5 39q0 20 15 38t42 18q42 0 58.5 -27.5t16.5 -72.5z" />
    <glyph glyph-name="ellipsis" unicode="&#x2026;" horiz-adv-x="822" 
d="M201 55q0 -26 -19 -44.5t-45 -18.5t-45 18.5t-19 44.5t19 45t45 19t45 -19t19 -45zM475 55q0 -26 -19 -44.5t-45 -18.5t-45 18.5t-19 44.5t19 45t45 19t45 -19t19 -45zM749 55q0 -26 -19 -44.5t-45 -18.5t-45 18.5t-19 44.5t19 45t45 19t45 -19t19 -45z" />
    <glyph glyph-name="dagger" unicode="&#x2020;" horiz-adv-x="492" 
d="M464 458q0 -25 -17 -40t-41 -15q-15 0 -28.5 8.5t-26 19l-24 19.5t-22.5 9q-14 0 -20 -8.5t-8 -33.5q-3 -55 -6 -119t-5.5 -129t-4.5 -128.5t-3 -118.5h-24q-1 54 -3 117.5t-4.5 129t-5.5 129.5t-6 119q-2 25 -8 33.5t-20 8.5q-11 0 -22.5 -9l-24 -19.5t-26 -19
t-28.5 -8.5q-24 0 -41 15t-17 40q0 15 10.5 27t25.5 12q16 0 27.5 -11t14.5 -30q7 0 16.5 4.5t19.5 10t20.5 10t20.5 4.5q18 0 29 -5.5t22 -17.5q-1 24 -6 52.5t-11 55.5t-10.5 51t-4.5 40q0 18 11 33.5t33 15.5t33 -15.5t11 -33.5q0 -16 -4.5 -40t-10.5 -51t-11 -55.5
t-6 -52.5q11 12 22 17.5t29 5.5q10 0 20.5 -4.5t20.5 -10t19.5 -10t16.5 -4.5q3 19 14.5 30t27.5 11q15 0 25.5 -12t10.5 -27z" />
    <glyph glyph-name="daggerdbl" unicode="&#x2021;" horiz-adv-x="522" 
d="M469 81q0 -15 -10.5 -25.5t-25.5 -10.5q-16 0 -27.5 11t-14.5 30q-14 -2 -29 -8t-38 -6q-18 0 -29 5.5t-22 17.5q1 -13 6 -28t11 -31t10.5 -32.5t4.5 -32.5q0 -18 -11 -33.5t-33 -15.5t-33 15.5t-11 33.5q0 16 4.5 32.5t10.5 32.5t11 31t6 28q-11 -12 -22 -17.5t-29 -5.5
q-23 0 -38 6t-29 8q-3 -19 -14.5 -30t-27.5 -11q-15 0 -25.5 10.5t-10.5 25.5q0 20 11.5 31.5t35.5 11.5q15 0 27 -4t23.5 -9t23.5 -9t28 -4t23.5 12.5t10.5 35.5q1 10 3 27t4 37.5l4 43l4 44.5h20l4 -44.5l4 -43t4 -37.5t3 -27q3 -23 10.5 -35.5t23.5 -12.5t28 4t23.5 9
t23.5 9t27 4q24 0 35.5 -11.5t11.5 -31.5zM469 551q0 -20 -11.5 -31.5t-35.5 -11.5q-15 0 -27 4t-23.5 9t-23.5 9t-28 4t-23.5 -12.5t-10.5 -35.5q-1 -10 -3 -27t-4 -37.5l-4 -43l-4 -44.5h-20l-4 44.5l-4 43t-4 37.5t-3 27q-3 23 -10.5 35.5t-23.5 12.5t-28 -4t-23.5 -9
t-23.5 -9t-27 -4q-24 0 -35.5 11.5t-11.5 31.5q0 15 10.5 25.5t25.5 10.5q16 0 27.5 -11t14.5 -30q14 2 29 8t38 6q18 0 29 -5.5t22 -17.5q-1 13 -6 28t-11 31t-10.5 32.5t-4.5 32.5q0 18 11 33.5t33 15.5t33 -15.5t11 -33.5q0 -16 -4.5 -32.5t-10.5 -32.5t-11 -31t-6 -28
q11 12 22 17.5t29 5.5q23 0 38 -6t29 -8q3 19 14.5 30t27.5 11q15 0 25.5 -10.5t10.5 -25.5z" />
    <glyph glyph-name="circumflex" unicode="&#x2c6;" 
d="M390 538l-141 134l-139 -134l-19 12l69 100.5l47 70.5q10 14 16 18t28 4q11 0 17 -0.5t10 -3t7 -6.5t7 -10l48 -70.5l69 -102.5z" />
    <glyph glyph-name="perthousand" unicode="&#x2030;" horiz-adv-x="1267" 
d="M304 457q0 66 -22 99t-59 33t-58.5 -33.5t-21.5 -93.5q0 -62 21.5 -95.5t60.5 -33.5q31 0 55 30.5t24 93.5zM734 141q0 65 -22 98.5t-59 33.5t-58.5 -35t-21.5 -92q0 -61 21.5 -95t60.5 -34q31 0 55 31t24 93zM1123 141q0 65 -22 98.5t-59 33.5t-58.5 -35t-21.5 -92
q0 -61 21.5 -95t60.5 -34q31 0 55 31t24 93zM383 459q0 -33 -14 -61.5t-36.5 -49.5t-51.5 -33.5t-59 -12.5q-31 0 -59.5 10t-50 30t-34.5 49t-13 67q0 35 14 64.5t36 51.5t50 34t57 12q30 0 59 -10t51.5 -30t36.5 -50t14 -71zM242 -101l-37 21l427 773l39 -21zM813 143
q0 -33 -14 -61.5t-36.5 -50t-51.5 -33.5t-59 -12q-31 0 -59.5 10.5t-50 30t-34.5 48.5t-13 67q0 34 14 64t36 51.5t50 34t57 12.5q30 0 59 -9.5t51.5 -29.5t36.5 -50.5t14 -71.5zM1202 143q0 -33 -14 -61.5t-36.5 -50t-51.5 -33.5t-59 -12q-31 0 -59.5 10.5t-50 30
t-34.5 48.5t-13 67q0 34 14 64t36 51.5t50 34t57 12.5q30 0 59 -9.5t51.5 -29.5t36.5 -50.5t14 -71.5z" />
    <glyph glyph-name="Scaron" unicode="&#x160;" horiz-adv-x="559" 
d="M521 195q0 -46 -18 -84t-49 -65.5t-73.5 -43t-90.5 -15.5q-61 0 -103.5 16t-65.5 34l-35 -47h-34l-7 244h33q15 -40 34.5 -77t46 -65.5t61 -46t81.5 -17.5q67 0 95 33t28 87q0 41 -24 74.5t-69 51.5q-21 9 -38.5 15.5l-33.5 13l-33 14l-38 16.5q-58 26 -90.5 68.5
t-32.5 109.5q0 40 16 73.5t43.5 58.5t65 39t80.5 14q19 0 40 -4t41 -11t37.5 -16t30.5 -19l34 47h34l5 -237h-32q-15 42 -31.5 78.5t-39.5 63.5t-55.5 42t-79.5 15q-11 0 -28 -4t-32.5 -15t-27 -29.5t-11.5 -47.5q0 -44 21 -71t63 -50q37 -20 69.5 -31t66.5 -27
q32 -15 59 -30.5t46.5 -36.5t30 -49.5t10.5 -68.5zM439 923l-69 -100.5l-47 -70.5q-10 -14 -16 -18t-28 -4q-11 0 -17 0.5t-10 3t-7 6.5t-7 10l-48 70.5l-69 102.5l19 12l141 -134l139 134l19 -12v0z" />
    <glyph glyph-name="guilsinglleft" unicode="&#x2039;" horiz-adv-x="351" 
d="M279 15l-123.5 100l-83.5 67l-10.5 8.5t-7 7.5t-3.5 10t-1 16q0 18 4.5 24.5t15.5 15.5l34.5 26.5l49 38.5l59.5 48l66 55l21 -18l-157 -192l157 -189z" />
    <glyph glyph-name="OE" unicode="&#x152;" horiz-adv-x="1023" 
d="M532 343q0 95 -6 159.5t-36 100.5q-20 25 -49 36t-71 11q-53 0 -92.5 -23.5t-66 -65t-40 -98.5t-13.5 -124q0 -58 11.5 -113t37 -98t65.5 -69.5t98 -26.5q44 0 70.5 11t44.5 29q15 15 24 42t14 62.5t7 78t2 88.5zM982 0h-426q-51 0 -101 -0.5t-99 -1.5q-60 0 -118 22.5
t-102 67.5q-45 45 -71.5 106t-26.5 140t22.5 141t66.5 110q46 50 107.5 75t125.5 25q31 0 56.5 -0.5t48.5 -0.5t45 -0.5t46 -0.5h390v-165h-37q-4 16 -15.5 37t-26.5 39.5t-32 32t-33 15.5q-18 2 -38.5 3t-44.5 1h-93v-273h62q42 0 58.5 11t25.5 20q6 6 11 16.5t9 23t7 25
t4 22.5h37v-279h-37q-1 11 -4 25t-7.5 27t-10 24t-9.5 16l-11 10.5t-15.5 10t-23.5 7.5t-34 3h-62v-205q0 -31 4.5 -49t17 -27.5t36 -12t61.5 -2.5q50 0 84.5 4t49.5 19q11 12 24 31t24 39.5t20 39.5t13 30h35z" />
    <glyph glyph-name="quoteleft" unicode="&#x2018;" horiz-adv-x="185" 
d="M165 711q-20 -12 -36.5 -23t-29.5 -24.5t-21 -31t-10 -41.5h25q37 0 51 -18.5t14 -40.5q0 -20 -15.5 -38t-42.5 -18q-42 0 -60 27.5t-18 72.5q0 32 13.5 58.5t33.5 46.5t41.5 35t38.5 24l16 -29v0z" />
    <glyph glyph-name="quoteright" unicode="&#x2019;" horiz-adv-x="185" 
d="M174 637q0 -32 -14 -58.5t-33.5 -46.5t-42 -35t-38.5 -24l-15 29q20 12 36.5 23t29.5 24.5t21 31t10 41.5h-25q-37 0 -51 18.5t-14 40.5q0 20 15.5 38t42.5 18q42 0 60 -27.5t18 -72.5z" />
    <glyph glyph-name="quotedblleft" unicode="&#x201c;" horiz-adv-x="354" 
d="M164 711q-40 -23 -66 -49t-31 -74h25q37 0 49.5 -17t12.5 -39q0 -20 -15 -38t-42 -18q-42 0 -58.5 27.5t-16.5 72.5q0 32 14 58t33.5 46.5t41.5 35t39 23.5l14 -28v0zM333 711q-40 -23 -66 -49t-31 -74h25q37 0 49.5 -17t12.5 -39q0 -20 -15 -38t-42 -18
q-42 0 -58.5 27.5t-16.5 72.5q0 32 14 58t33.5 46.5t41.5 35t39 23.5l14 -28v0z" />
    <glyph glyph-name="quotedblright" unicode="&#x201d;" horiz-adv-x="354" 
d="M173 637q0 -32 -14 -58t-34.5 -45.5t-43 -34t-38.5 -23.5l-14 28l37 23t30 25t21.5 31.5t10.5 41.5h-25q-37 0 -49.5 17t-12.5 39q0 20 15 38t42 18q42 0 58.5 -27.5t16.5 -72.5zM342 637q0 -32 -14 -58t-34.5 -45.5t-43 -34t-38.5 -23.5l-14 28l37 23t30 25t21.5 31.5
t10.5 41.5h-25q-37 0 -49.5 17t-12.5 39q0 20 15 38t42 18q42 0 58.5 -27.5t16.5 -72.5z" />
    <glyph glyph-name="bullet" unicode="&#x2022;" horiz-adv-x="412" 
d="M342 325q0 -28 -11 -52.5t-29.5 -42.5t-43 -28.5t-52.5 -10.5t-52.5 10.5t-43 28.5t-29.5 42.5t-11 52.5t11 52.5t29.5 43t43 29.5t52.5 11t52.5 -11t43 -29.5t29.5 -43t11 -52.5z" />
    <glyph glyph-name="endash" unicode="&#x2013;" horiz-adv-x="542" 
d="M50 240v61h442v-61h-442z" />
    <glyph glyph-name="emdash" unicode="&#x2014;" horiz-adv-x="930" 
d="M74 225v61h782v-61h-782z" />
    <glyph glyph-name="tilde" unicode="&#x2dc;" 
d="M444 700q-5 -18 -16.5 -40t-28 -40.5t-38 -31.5t-45.5 -13q-30 0 -51.5 8.5t-38.5 18.5t-33.5 18.5t-37.5 8.5q-16 0 -26 -4.5t-18.5 -13.5t-15.5 -22t-17 -30l-23 10q6 17 17.5 39t27 41t36 32t44.5 13q29 0 50 -8.5t38.5 -18.5l33.5 -18.5t34 -8.5q23 0 36 5t21.5 14
t13.5 21.5t13 28.5l24 -9v0z" />
    <glyph glyph-name="trademark" unicode="&#x2122;" horiz-adv-x="830" 
d="M311 593q-2 8 -7 18.5t-11.5 20t-13.5 17t-14 8.5q-8 1 -18 1.5t-18 0.5h-13v-242q0 -14 11 -19q5 -2 18 -4.5t22 -2.5v-23h-157v23q9 0 22 1.5t18 3.5q7 2 9 7.5t2 10.5v245h-13q-6 0 -17 -0.5t-19 -1.5q-7 -1 -14.5 -8.5t-13.5 -17t-11 -20t-7 -18.5h-22v90h289v-90
h-22zM632 368v23q9 0 22.5 1.5t18.5 3.5q7 5 10 8.5t3 10.5v203l-108 -245h-17q-5 16 -12 33.5l-13 32.5l-77 184v-161q0 -26 3 -39.5t10 -19.5q6 -4 21.5 -8t25.5 -4v-23h-146v22q8 2 22 4t22 7q13 9 13 59v156q0 22 -13 33q-8 6 -19 8.5t-22 3.5v22h115l95 -221l79 181
q5 12 7.5 23t4.5 17h111v-22q-9 -1 -20 -2.5t-17 -3.5q-7 -2 -9 -7t-2 -11v-222q0 -13 11 -18q5 -2 16.5 -4t20.5 -2v-23h-156z" />
    <glyph glyph-name="scaron" unicode="&#x161;" horiz-adv-x="410" 
d="M373 132q0 -34 -13.5 -61t-36.5 -46t-54 -29t-66 -10q-18 0 -36.5 4t-35 10t-29 13t-18.5 14l-10 -32h-34l-5 162h32q4 -19 15 -42.5t29 -44.5t42 -35t54 -14q53 0 73.5 21t20.5 59q0 40 -29 59.5t-87 36.5q-24 7 -48.5 18t-44.5 28t-32.5 41t-12.5 57q0 28 10.5 52.5
t30.5 42.5t48 28.5t63 10.5q29 0 57 -6.5t47 -20.5l8 28h32l7 -145h-32q-4 22 -13 41.5t-24 34.5t-35.5 24t-47.5 9q-39 0 -59 -18t-20 -47q0 -21 6.5 -34.5t21 -23.5t36.5 -18.5t52 -18.5q31 -10 56.5 -23t43.5 -30t28 -40.5t10 -54.5zM361 732l-69 -100.5l-47 -70.5
q-10 -14 -16 -18t-28 -4q-11 0 -17 0.5t-10 3t-7 6.5t-7 10l-48 70.5l-69 102.5l19 12l141 -134l139 134l19 -12v0z" />
    <glyph glyph-name="guilsinglright" unicode="&#x203a;" horiz-adv-x="351" 
d="M301 224q0 -10 -1 -16t-3.5 -10t-7 -7.5l-10.5 -8.5l-83.5 -67l-123.5 -100l-21 18l157 189l-157 192l21 18l66 -55l59.5 -48l49 -38.5l34.5 -26.5q11 -9 15.5 -15.5t4.5 -24.5z" />
    <glyph glyph-name="oe" unicode="&#x153;" horiz-adv-x="814" 
d="M383 230q0 39 -5 77t-18.5 68t-37 48t-60.5 18q-38 0 -62.5 -19t-39 -48.5t-20.5 -66t-6 -70.5q0 -45 7 -84.5t22.5 -69t40 -46.5t58.5 -17q33 0 56 16t37.5 44t21 66.5t6.5 83.5zM687 290q0 24 -3 51t-13.5 49t-29.5 36.5t-50 14.5q-25 0 -45.5 -12.5t-35 -33.5
t-22.5 -48.5t-8 -58.5l207 2v0zM794 109q-12 -26 -31.5 -48t-43.5 -38t-52.5 -25.5t-59.5 -9.5q-55 0 -102 21t-75 59q-30 -38 -72.5 -60t-99.5 -22q-45 0 -85.5 16.5t-71.5 48t-49.5 76.5t-18.5 102q0 51 15.5 96t45 78t72.5 52.5t99 19.5q54 0 98.5 -21t75.5 -58
q27 35 66.5 57t88.5 22q51 0 87 -15.5t58.5 -42t33 -62.5t10.5 -76v-26h-303q0 -103 36.5 -158.5t113.5 -55.5q51 0 80 23.5t53 65.5l31 -19v0z" />
    <glyph glyph-name="Ydieresis" unicode="&#x178;" horiz-adv-x="627" 
d="M661 650q-5 0 -13 -2t-16.5 -5l-16.5 -6t-12 -6l-16.5 -10t-12.5 -9t-12.5 -12.5l-16.5 -19.5q-20 -26 -38.5 -52.5t-36.5 -56.5l-36.5 -64l-40.5 -73q-15 -27 -25 -57t-10 -55v-123q0 -17 7 -29.5t24 -20.5q4 -2 15 -4.5t23.5 -5t24.5 -4.5t19 -2v-33h-332v33
q7 0 18.5 1t24 2.5t23.5 3.5t16 4q18 7 24.5 20t6.5 30v164q0 15 -7.5 33.5t-18.5 41.5l-65 123l-62 110q-16 27 -32 42t-34 26q-14 8 -32 11.5t-32 4.5v33h322v-33q-13 -1 -30.5 -1.5t-33 -3t-26.5 -7t-11 -12.5q0 -5 11.5 -29t31.5 -62l48.5 -89l61.5 -110l64.5 102.5
t50.5 84.5t33 60.5t12 29.5q0 11 -9.5 18t-24.5 10.5t-33 5.5t-35 3v33h260v-33v0zM283 820q0 -25 -17 -43t-43 -18q-23 0 -40 17t-17 40q0 24 17 41.5t40 17.5q26 0 43 -16.5t17 -38.5zM500 820q0 -25 -17 -43t-42 -18q-24 0 -41 17t-17 40q0 24 17 41.5t41 17.5
q26 0 42.5 -16.5t16.5 -38.5z" />
    <glyph glyph-name="exclamdown" unicode="&#xa1;" horiz-adv-x="365" 
d="M242 54q0 -28 -17 -48t-45 -20t-45 20t-17 48q0 15 4.5 55.5l11 96.5l14.5 124.5t15 139.5h36q6 -71 13 -139t14 -124t11.5 -96.5t4.5 -56.5zM247 629q0 -28 -19.5 -47.5t-47.5 -19.5t-47.5 19.5t-19.5 47.5t19.5 47t47.5 19t47.5 -19t19.5 -47z" />
    <glyph glyph-name="cent" unicode="&#xa2;" horiz-adv-x="480" 
d="M271 511q-23 0 -45.5 -10.5t-40.5 -34.5t-29.5 -63t-11.5 -96q0 -51 14.5 -92t40.5 -68l86 364h-14zM459 177q-14 -25 -34.5 -46.5t-45 -37.5t-53 -25.5t-59.5 -9.5q-14 0 -26.5 1t-23.5 3l-43 -180l-35 8l43 181q-70 25 -104 86.5t-34 145.5q0 47 16 91t46 77.5t72 53.5
t95 20h9q5 0 10 -1l30 126l36 -8l-29 -122q59 -11 91.5 -42t32.5 -71q0 -30 -15 -47t-41 -17q-19 0 -35 12.5t-16 37.5q0 16 3 24.5t6.5 14.5t6.5 10.5t3 11.5q-2 14 -14 21t-30 11l-90 -383q26 -14 60 -14q48 0 79 22t58 66l31 -20v0z" />
    <glyph glyph-name="sterling" unicode="&#xa3;" horiz-adv-x="705" 
d="M227 37q-29 16 -63.5 28.5t-68.5 12.5q-18 0 -30 -5t-20 -12.5t-11.5 -15t-3.5 -13.5q0 -15 21 -27.5t59 -12.5q32 0 64 12.5t53 32.5zM664 191q-5 -36 -17.5 -77t-38.5 -76t-67.5 -58.5t-102.5 -23.5q-45 0 -94.5 21t-91.5 46q-12 -15 -29.5 -27.5t-37 -21.5t-39 -14
t-35.5 -5q-58 0 -85.5 20t-27.5 56t32 64.5t91 28.5q36 0 74.5 -9.5t64.5 -20.5v39q0 22 -1.5 44.5t-4 43t-7.5 37.5h-135v39h130q-3 19 -10 48t-7 80t14.5 97.5t43.5 82t73 56.5t103 21q42 0 74.5 -13t54 -34.5t32.5 -49t11 -57.5q0 -14 -4 -28.5t-11.5 -26.5t-19 -19.5
t-27.5 -7.5q-19 0 -30.5 5.5t-18 14t-9 19t-2.5 19.5q0 16 7.5 26.5t16 17t16 10.5t7.5 8q0 9 -2.5 23t-12.5 27t-30 22.5t-54 9.5q-19 0 -42 -6.5t-43 -24t-33.5 -49t-13.5 -81.5q0 -14 2.5 -38.5l5 -51.5l5 -54t2.5 -46h169v-39h-170q-1 -20 -5 -43.5t-11 -47t-16 -45
t-19 -36.5q27 -9 49.5 -17.5t44.5 -14.5t46 -9.5t56 -3.5q39 0 65 14t42 36.5t24.5 49.5t12.5 54l36 -4v0z" />
    <glyph glyph-name="currency" unicode="&#xa4;" horiz-adv-x="883" 
d="M86 220v28q6 0 15 0.5t18.5 1.5t18 1.5t12.5 2.5q11 3 17.5 11.5t6.5 19.5v267q-14 -3 -36 -3q-19 0 -40.5 12t-43.5 27l9 20q17 -7 35 -12t42 -5q33 0 63 10.5t47 18.5h14q-5 -22 -8 -51.5t-3 -52.5v-227q0 -24 23 -32q4 -2 12.5 -3.5t17.5 -2.5l17.5 -2t13.5 -1v-28
h-251zM125 -112l-30 29l670 714l31 -29zM823 -95h-299v38q35 21 59.5 37l44 29.5t35.5 27t34 30.5q23 23 34.5 41.5t16 35t4.5 30.5v29q0 39 -21 58.5t-52 19.5q-34 0 -54 -14t-22 -37q1 -4 4.5 -7.5t7.5 -8t7 -10t3 -13.5q0 -5 -2.5 -12t-7.5 -13.5t-14.5 -11t-22.5 -4.5
q-23 0 -32.5 15.5t-9.5 29.5t8.5 33.5t27.5 37.5t48.5 30.5t71.5 12.5q31 0 58 -8.5t46.5 -23.5t30.5 -36t11 -45q0 -33 -9 -58.5t-32.5 -50t-63.5 -50t-103 -58.5l-20 -16h167q12 0 23 8t20 20t16 25l12 23l23 -9z" />
    <glyph glyph-name="yen" unicode="&#xa5;" horiz-adv-x="579" 
d="M588 579q-8 -1 -25 -6t-24 -10q-9 -5 -14.5 -8.5t-11 -8t-11 -11l-13.5 -16.5q-35 -44 -64.5 -94l-66.5 -118q-5 -8 -9 -16.5t-7 -16.5h152v-39h-161q-2 -8 -2 -15v-14v-112q0 -16 7.5 -29t21.5 -19q6 -3 15.5 -5t20.5 -3.5l21.5 -3t17.5 -1.5v-33h-310v33q7 0 18 1l23 2
t23 2.5t16 3.5q14 5 22.5 17.5t8.5 29.5v146h-158v39h152q-7 17 -15 32q-29 59 -55.5 106l-53.5 95q-14 23 -27.5 36t-29.5 22q-11 7 -27 10t-29 4v28h282v-28q-11 -1 -26 -1.5t-28.5 -2.5t-23 -6t-9.5 -11q0 -9 34.5 -73l92.5 -166l96.5 156t36.5 72q0 10 -8.5 15.5t-21 9
t-28 5t-30.5 2.5v28h228v-28v0z" />
    <glyph glyph-name="section" unicode="&#xa7;" horiz-adv-x="570" 
d="M424 165q0 23 -11.5 44.5t-30.5 44.5l-89.5 105t-67.5 81q-42 -9 -62.5 -27.5t-20.5 -56.5q0 -23 12.5 -47t31.5 -47q25 -30 47 -54l41.5 -45.5l36 -41t31.5 -40.5q38 10 60 29.5t22 54.5zM495 177q0 -31 -12 -53t-30.5 -36t-42.5 -22t-48 -12q18 -27 31 -59.5t13 -72.5
q0 -29 -12 -56t-33 -47.5t-50 -33t-63 -12.5q-32 0 -58 8t-44 22t-28 32t-10 39q0 27 16.5 43.5t41.5 16.5q20 0 34.5 -13.5t14.5 -31.5q0 -17 -7.5 -27t-7.5 -24t13 -24t42 -10q34 0 57.5 25t23.5 79q0 18 -3 32.5t-9.5 28.5t-16.5 29t-25 34q-14 19 -28.5 35.5t-30.5 33
l-33.5 35.5t-38.5 44l-32.5 40.5t-24 37.5t-14.5 38.5t-5 42.5q0 30 11.5 53t30.5 39t42 25t46 12q-17 25 -28.5 54.5t-11.5 67.5q0 29 12.5 56t34 47.5t51 32.5t62.5 12q30 0 54.5 -9.5t41.5 -24.5t26 -34.5t9 -38.5q0 -24 -14.5 -41t-39.5 -17q-19 0 -33.5 13.5
t-14.5 31.5q0 9 2 16t5 13t5 12.5t2 14.5q0 16 -12 24t-41 8q-38 0 -61 -26t-23 -69q0 -18 3.5 -32.5t10.5 -28.5t18 -29l25 -34t28 -35.5l29 -33.5l32.5 -36t38.5 -44l34 -42t25 -38t15 -38.5t5 -42.5z" />
    <glyph glyph-name="dieresis" unicode="&#xa8;" 
d="M200 659q0 -25 -17 -43t-43 -18q-23 0 -40 17t-17 40q0 24 17 41.5t40 17.5q26 0 43 -16.5t17 -38.5zM417 659q0 -25 -17 -43t-42 -18q-24 0 -41 17t-17 40q0 24 17 41.5t41 17.5q26 0 42.5 -16.5t16.5 -38.5z" />
    <glyph glyph-name="copyright" unicode="&#xa9;" horiz-adv-x="942" 
d="M669 155q-12 -26 -28.5 -51.5t-39.5 -45.5t-53.5 -32.5t-69.5 -12.5q-54 0 -98 16.5t-75.5 46.5t-48.5 73.5t-17 97.5q0 52 18.5 96.5t52.5 77t80 51t102 18.5q27 0 58.5 -8.5t48.5 -21.5l22 37l29 -1l4 -181h-25q-9 27 -21 52.5t-29.5 45t-43 31.5t-62.5 12
q-25 0 -49 -12t-42.5 -37t-30 -63.5t-11.5 -91.5q0 -44 12 -79.5t33.5 -60t50.5 -38t62 -13.5q31 0 53.5 8t40 22.5t30 33.5t23.5 41l24 -11v0zM865 251q0 82 -30.5 154t-84 125.5t-125 84.5t-153.5 31q-83 0 -155 -31t-125 -84.5t-84 -125.5t-31 -154q0 -83 31 -155.5
t84 -126.5t125 -85t155 -31q82 0 153.5 31t125 85t84 126.5t30.5 155.5zM903 251q0 -89 -34 -168t-93 -137.5t-137.5 -92.5t-166.5 -34q-89 0 -168 34t-138 92.5t-93 137.5t-34 168q0 88 34 166.5t93 137t138 92.5t168 34q88 0 166.5 -34t137.5 -92.5t93 -137t34 -166.5z
" />
    <glyph glyph-name="ordfeminine" unicode="&#xaa;" horiz-adv-x="450" 
d="M248 467q-25 -8 -46.5 -16t-37.5 -19.5t-25 -26.5t-9 -37q0 -27 13.5 -38t34.5 -11q26 0 40.5 10.5t26.5 25.5l3 112v0zM66 155v46h313v-46h-313zM393 376q-3 -52 -24 -73.5t-56 -21.5q-26 0 -40.5 12t-21.5 35h-3q-19 -21 -46 -34.5t-59 -13.5q-38 0 -61 21.5t-23 57.5
q0 21 7 36.5t17.5 27t24 19t27.5 12.5q29 12 59.5 22t52.5 21v30q0 4 -1 14.5t-6.5 21.5t-17 20t-32.5 9q-16 0 -27 -4.5t-16 -9.5q0 -8 3 -19.5t3 -22.5q0 -12 -11.5 -22.5t-31.5 -10.5q-19 0 -27 12.5t-8 26.5q0 16 11 30.5t28 25.5t38 17t42 6q27 0 49.5 -3.5t39 -15
t26 -33t9.5 -56.5q0 -23 -0.5 -47.5t-1.5 -46t-1.5 -38.5t-0.5 -26q0 -3 1 -8t3.5 -10t7.5 -9t13 -4q27 0 30 52h24v0z" />
    <glyph glyph-name="guillemotleft" unicode="&#xab;" horiz-adv-x="560" 
d="M279 15l-123.5 100l-83.5 67l-10.5 8.5t-7 7.5t-3.5 10t-1 16q0 18 4.5 24.5t15.5 15.5l34.5 26.5l49 38.5l59.5 48l66 55l21 -18l-157 -192l157 -189zM488 15l-123.5 100l-83.5 67l-10.5 8.5t-7 7.5t-3.5 10t-1 16q0 18 4.5 24.5t15.5 15.5l34.5 26.5l49 38.5l59.5 48
l66 55l21 -18l-157 -192l157 -189z" />
    <glyph glyph-name="registered" unicode="&#xae;" horiz-adv-x="630" 
d="M366 526q0 27 -16 39t-39 12h-34v-111h24q26 0 45.5 16t19.5 44zM386 306q-5 23 -11 43t-14 42t-26 37t-39 15h-19v-95q0 -14 11 -18q5 -2 15.5 -3t18.5 -1v-20h-139v20q8 0 18 1t15 3q11 4 11 18v207q0 16 -11 18q-6 2 -15.5 3.5t-17.5 2.5v20h150q16 0 32.5 -4t29 -12
t20.5 -21.5t8 -31.5q0 -36 -23.5 -50.5t-57.5 -23.5v-2q23 -5 41.5 -16.5t29.5 -36.5q5 -13 10 -29t7 -21q5 -14 12 -17t13 -5q12 -3 28 -3v-20h-97zM549 443q0 48 -18.5 91t-50 75.5t-74.5 51t-91 18.5q-49 0 -91.5 -18.5t-74 -51t-50 -75.5t-18.5 -91q0 -49 18.5 -92
t50 -75.5t74 -51t91.5 -18.5q48 0 91 18.5t74.5 51t50 75.5t18.5 92zM577 443q0 -54 -21 -101.5t-56.5 -83t-83 -56t-101.5 -20.5t-101.5 20.5t-83.5 56t-56.5 83t-20.5 101.5t20.5 101t56.5 82.5t83.5 56t101.5 20.5t101.5 -20.5t83 -56t56.5 -82.5t21 -101z" />
    <glyph glyph-name="macron" unicode="&#xaf;" 
d="M85 596v62h330v-62h-330z" />
    <glyph glyph-name="degree" unicode="&#xb0;" horiz-adv-x="410" 
d="M293 548q0 57 -24 89t-65 32t-64.5 -32.5t-23.5 -83.5q0 -53 23.5 -85.5t66.5 -32.5q34 0 60.5 29.5t26.5 83.5zM364 550q0 -33 -14 -61.5t-36.5 -49.5t-51.5 -33t-59 -12q-31 0 -59.5 10t-50 29.5t-34.5 48.5t-13 67q0 35 14 64.5t36 51t50 33.5t57 12q30 0 59 -9.5
t51.5 -29.5t36.5 -50t14 -71z" />
    <glyph glyph-name="plusminus" unicode="&#xb1;" horiz-adv-x="877" 
d="M415 587q-22 1 -34 11t-12 27q0 25 5.5 33.5t7.5 14.5q-1 4 -3.5 10t-9 11t-18.5 9t-31 4q-22 0 -44 -10t-40 -33.5t-29 -63t-11 -98.5v-42h204v21q0 32 4 57.5t11 48.5zM621 0v31q14 1 23 2t20 4q14 5 21 16.5t7 28.5v511q-11 3 -21.5 10.5t-10.5 25.5q0 12 4 20.5
t8.5 14t8.5 9t5 5.5q0 3 -3.5 9.5t-11.5 12.5t-22 10.5t-36 4.5q-23 0 -45 -11t-39.5 -35.5t-28.5 -64t-11 -97.5v-47h123v-41h-123v-332q0 -35 27 -45q24 -10 50 -11v-31h-239v31q14 1 23.5 2t20.5 4q14 5 20.5 16.5t6.5 28.5v340h-201v-335q0 -35 27 -45q11 -5 21 -7.5
t24 -3.5v-31h-234v31q14 1 23.5 2t20.5 4q14 5 20.5 16.5t6.5 28.5v338h-102v40h102v16q0 63 18.5 111.5t53.5 88.5q11 12 27 23.5t35.5 20.5t41.5 14.5t45 5.5q58 0 89.5 -21t43.5 -51q2 4 14 16.5t32.5 26.5t49 25t63.5 11q38 0 63 -7.5t44 -16.5l34 23l22 -7v-651
q0 -34 27 -46q11 -5 20.5 -7.5t23.5 -3.5v-31h-232z" />
    <glyph glyph-name="acute" unicode="&#xb4;" 
d="M340 703q0 -19 -9 -30t-27 -25q-11 -9 -24.5 -19l-31 -23l-40 -30.5l-52.5 -41.5l-14 12l33.5 50l26 40l20.5 33l17 29q14 25 28 34t33 9q17 0 28.5 -12t11.5 -26z" />
    <glyph glyph-name="paragraph" unicode="&#xb6;" horiz-adv-x="619" 
d="M466 651v-776h-38v776h-86v-776h-38v467h-25q-67 0 -110 15t-67.5 39t-34 54t-9.5 60q0 28 9.5 58.5t31.5 56t57.5 42t87.5 16.5h359v-32h-137z" />
    <glyph glyph-name="periodcentered" unicode="&#xb7;" horiz-adv-x="290" 
d="M214 272q0 -28 -20 -47.5t-48 -19.5t-48 19.5t-20 47.5t20 48t48 20t48 -20t20 -48z" />
    <glyph glyph-name="periodcentered" unicode="&#x2219;" horiz-adv-x="290" 
d="M214 272q0 -28 -20 -47.5t-48 -19.5t-48 19.5t-20 47.5t20 48t48 20t48 -20t20 -48z" />
    <glyph glyph-name="cedilla" unicode="&#xb8;" 
d="M355 -131q0 -33 -17.5 -53.5t-47 -32t-67.5 -16t-80 -4.5v36h48t45.5 4.5t33.5 15.5t13 32q0 13 -9 20.5t-23 11.5t-30.5 4.5t-31.5 0.5v120h34v-63q21 0 44 -3t42.5 -11t32.5 -23t13 -39z" />
    <glyph glyph-name="ordmasculine" unicode="&#xba;" horiz-adv-x="450" 
d="M310 452q0 25 -4 50t-14 44.5t-26.5 31.5t-40.5 12q-26 0 -42 -12.5t-26 -32.5t-13.5 -44t-3.5 -48q0 -29 4.5 -55t14.5 -46t26.5 -32t39.5 -12q22 0 38.5 11.5t26.5 31t15 46t5 55.5zM68 155v46h314v-46h-314zM387 453q0 -36 -11 -67.5t-32 -55.5t-52 -38t-71 -14
q-32 0 -60.5 12t-50 34t-34.5 53.5t-13 70.5q0 38 11.5 69.5t33 54.5t51.5 35.5t67 12.5t66.5 -12.5t50.5 -35t32.5 -53t11.5 -66.5z" />
    <glyph glyph-name="guillemotright" unicode="&#xbb;" horiz-adv-x="560" 
d="M301 224q0 -10 -1 -16t-3.5 -10t-7 -7.5l-10.5 -8.5l-83.5 -67l-123.5 -100l-21 18l157 189l-157 192l21 18l66 -55l59.5 -48l49 -38.5l34.5 -26.5q11 -9 15.5 -15.5t4.5 -24.5zM510 224q0 -10 -1 -16t-3.5 -10t-7 -7.5l-10.5 -8.5l-83.5 -67l-123.5 -100l-21 18l157 189
l-157 192l21 18l66 -55l59.5 -48l49 -38.5l34.5 -26.5q11 -9 15.5 -15.5t4.5 -24.5z" />
    <glyph glyph-name="onehalf" unicode="&#xbd;" horiz-adv-x="883" 
d="M86 220v28q6 0 15 0.5t18.5 1.5t18 1.5t12.5 2.5q11 3 17.5 11.5t6.5 19.5v267q-14 -3 -36 -3q-19 0 -40.5 12t-43.5 27l9 20q17 -7 35 -12t42 -5q33 0 63 10.5t47 18.5h14q-5 -22 -8 -51.5t-3 -52.5v-227q0 -24 23 -32q4 -2 12.5 -3.5t17.5 -2.5l17.5 -2t13.5 -1v-28
h-251zM125 -112l-30 29l670 714l31 -29zM823 -95h-299v38q35 21 59.5 37l44 29.5t35.5 27t34 30.5q23 23 34.5 41.5t16 35t4.5 30.5v29q0 39 -21 58.5t-52 19.5q-34 0 -54 -14t-22 -37q1 -4 4.5 -7.5t7.5 -8t7 -10t3 -13.5q0 -5 -2.5 -12t-7.5 -13.5t-14.5 -11t-22.5 -4.5
q-23 0 -32.5 15.5t-9.5 29.5t8.5 33.5t27.5 37.5t48.5 30.5t71.5 12.5q31 0 58 -8.5t46.5 -23.5t30.5 -36t11 -45q0 -33 -9 -58.5t-32.5 -50t-63.5 -50t-103 -58.5l-20 -16h167q12 0 23 8t20 20t16 25l12 23l23 -9z" />
    <glyph glyph-name="questiondown" unicode="&#xbf;" horiz-adv-x="482" 
d="M449 102q0 -19 -11.5 -37t-33 -32.5t-52.5 -23.5t-70 -9q-53 0 -92.5 15t-66 42t-40 63.5t-13.5 79.5q0 42 16.5 78t46 63t69 44.5t85.5 23.5l3 96h38v-172q-29 -4 -58 -12t-52.5 -23.5t-38.5 -41t-15 -64.5q0 -44 9.5 -73.5t25.5 -47.5t38 -26t47 -8q20 0 39 5t28 16
q-2 6 -6 14t-4 38q0 13 6 22.5t15 15.5t19 8.5t17 2.5q26 0 38.5 -16.5t12.5 -40.5zM374 629q0 -28 -19.5 -47.5t-47.5 -19.5t-47.5 19.5t-19.5 47.5t19.5 46.5t47.5 18.5t47.5 -18.5t19.5 -46.5z" />
    <glyph glyph-name="Agrave" unicode="&#xc0;" horiz-adv-x="697" 
d="M320 547l-105 -267h211zM406 0v33q13 1 30.5 3t33 5.5t26.5 8.5t11 11q0 12 -4 23l-60 153h-245q-11 -27 -21 -54.5t-17 -50.5q-11 -35 -11 -56q0 -12 12.5 -19.5t30.5 -12.5t37.5 -7.5t32.5 -3.5v-33h-285v33q14 1 35 5.5t35 12.5q18 11 32 26.5t25 41.5l55.5 135.5
l57.5 145l58.5 148l58.5 146.5h43l74 -189l67 -170.5l54.5 -139.5l37.5 -96q6 -15 16.5 -26.5t28.5 -22.5q14 -8 33 -12t33 -5v-33h-315zM392 725l-52.5 41.5l-40 30.5l-31 23t-24.5 19q-18 14 -27 25t-9 30q0 14 11.5 26t28.5 12q19 0 33 -9t28 -34l37.5 -62.5t59.5 -89.5z
" />
    <glyph glyph-name="Aacute" unicode="&#xc1;" horiz-adv-x="697" 
d="M320 547l-105 -267h211zM406 0v33q13 1 30.5 3t33 5.5t26.5 8.5t11 11q0 12 -4 23l-60 153h-245q-11 -27 -21 -54.5t-17 -50.5q-11 -35 -11 -56q0 -12 12.5 -19.5t30.5 -12.5t37.5 -7.5t32.5 -3.5v-33h-285v33q14 1 35 5.5t35 12.5q18 11 32 26.5t25 41.5l55.5 135.5
l57.5 145l58.5 148l58.5 146.5h43l74 -189l67 -170.5l54.5 -139.5l37.5 -96q6 -15 16.5 -26.5t28.5 -22.5q14 -8 33 -12t33 -5v-33h-315zM500 894q0 -19 -9 -30t-27 -25q-11 -9 -24.5 -19l-31 -23l-40 -30.5l-52.5 -41.5l-14 12l33.5 50l26 40l20.5 33l17 29q14 25 28 34
t33 9q17 0 28.5 -12t11.5 -26z" />
    <glyph glyph-name="Acircumflex" unicode="&#xc2;" horiz-adv-x="697" 
d="M320 547l-105 -267h211zM406 0v33q13 1 30.5 3t33 5.5t26.5 8.5t11 11q0 12 -4 23l-60 153h-245q-11 -27 -21 -54.5t-17 -50.5q-11 -35 -11 -56q0 -12 12.5 -19.5t30.5 -12.5t37.5 -7.5t32.5 -3.5v-33h-285v33q14 1 35 5.5t35 12.5q18 11 32 26.5t25 41.5l55.5 135.5
l57.5 145l58.5 148l58.5 146.5h43l74 -189l67 -170.5l54.5 -139.5l37.5 -96q6 -15 16.5 -26.5t28.5 -22.5q14 -8 33 -12t33 -5v-33h-315zM494 699l-141 134l-139 -134l-19 12l69 100.5l47 70.5q10 14 16 18t28 4q11 0 17 -0.5t10 -3t7 -6.5t7 -10l48 -70.5l69 -102.5z" />
    <glyph glyph-name="Atilde" unicode="&#xc3;" horiz-adv-x="697" 
d="M320 547l-105 -267h211zM406 0v33q13 1 30.5 3t33 5.5t26.5 8.5t11 11q0 12 -4 23l-60 153h-245q-11 -27 -21 -54.5t-17 -50.5q-11 -35 -11 -56q0 -12 12.5 -19.5t30.5 -12.5t37.5 -7.5t32.5 -3.5v-33h-285v33q14 1 35 5.5t35 12.5q18 11 32 26.5t25 41.5l55.5 135.5
l57.5 145l58.5 148l58.5 146.5h43l74 -189l67 -170.5l54.5 -139.5l37.5 -96q6 -15 16.5 -26.5t28.5 -22.5q14 -8 33 -12t33 -5v-33h-315zM559 871q-5 -18 -16.5 -40t-28 -40.5t-38 -31.5t-45.5 -13q-30 0 -51.5 8.5t-38.5 18.5t-33.5 18.5t-37.5 8.5q-16 0 -26 -4.5
t-18.5 -13.5t-15.5 -22t-17 -30l-23 10q6 17 17.5 39t27 41t36 32t44.5 13q29 0 50 -8.5t38.5 -18.5l33.5 -18.5t34 -8.5q23 0 36 5t21.5 14t13.5 21.5t13 28.5l24 -9v0z" />
    <glyph glyph-name="Adieresis" unicode="&#xc4;" horiz-adv-x="697" 
d="M320 547l-105 -267h211zM406 0v33q13 1 30.5 3t33 5.5t26.5 8.5t11 11q0 12 -4 23l-60 153h-245q-11 -27 -21 -54.5t-17 -50.5q-11 -35 -11 -56q0 -12 12.5 -19.5t30.5 -12.5t37.5 -7.5t32.5 -3.5v-33h-285v33q14 1 35 5.5t35 12.5q18 11 32 26.5t25 41.5l55.5 135.5
l57.5 145l58.5 148l58.5 146.5h43l74 -189l67 -170.5l54.5 -139.5l37.5 -96q6 -15 16.5 -26.5t28.5 -22.5q14 -8 33 -12t33 -5v-33h-315zM301 820q0 -25 -17 -43t-43 -18q-23 0 -40 17t-17 40q0 24 17 41.5t40 17.5q26 0 43 -16.5t17 -38.5zM518 820q0 -25 -17 -43t-42 -18
q-24 0 -41 17t-17 40q0 24 17 41.5t41 17.5q26 0 42.5 -16.5t16.5 -38.5z" />
    <glyph glyph-name="Aring" unicode="&#xc5;" horiz-adv-x="697" 
d="M320 547l-105 -267h211zM406 0v33q13 1 30.5 3t33 5.5t26.5 8.5t11 11q0 12 -4 23l-60 153h-245q-11 -27 -21 -54.5t-17 -50.5q-11 -35 -11 -56q0 -12 12.5 -19.5t30.5 -12.5t37.5 -7.5t32.5 -3.5v-33h-285v33q14 1 35 5.5t35 12.5q18 11 32 26.5t25 41.5l55.5 135.5
l57.5 145l58.5 148l58.5 146.5h43l74 -189l67 -170.5l54.5 -139.5l37.5 -96q6 -15 16.5 -26.5t28.5 -22.5q14 -8 33 -12t33 -5v-33h-315zM412 829q0 30 -15 50t-44 20q-28 0 -43.5 -19t-15.5 -51q0 -31 15 -50.5t44 -19.5t44 19t15 51zM461 829q0 -44 -30.5 -72t-77.5 -28
q-48 0 -78 27.5t-30 72.5q0 22 8.5 40.5t23.5 31.5t34.5 20.5t41.5 7.5q45 0 76.5 -27.5t31.5 -72.5z" />
    <glyph glyph-name="AE" unicode="&#xc6;" horiz-adv-x="940" 
d="M436 640h-13l-187 -330h200v330zM903 0h-577v33q7 0 18 1t23 2.5t22.5 3.5t15.5 4q18 7 24.5 19.5t6.5 29.5v176h-225l-19.5 -35l-20.5 -37.5l-18.5 -35.5l-14.5 -29q-8 -17 -12 -27.5t-4 -21.5q0 -14 8 -23t21 -14.5t30 -8.5t34 -4v-33h-275v33q14 1 36.5 6t37.5 13
q20 10 34.5 25.5t30.5 41.5l146.5 253.5l151.5 266.5q-13 5 -36.5 8t-40.5 4v32h562v-165h-37q-4 16 -15.5 37t-26.5 39.5t-32 32t-33 15.5q-18 2 -38.5 3t-44.5 1h-93v-273h80q42 0 58.5 11t25.5 20q6 6 11 16.5t9 23t7 25t4 22.5h37v-279h-37q-1 11 -4 25t-7.5 27t-10 24
t-9.5 16l-11 10.5t-15.5 10t-23.5 7.5t-34 3h-80v-205q0 -31 4.5 -49t17 -27.5t36 -12t61.5 -2.5q19 0 40.5 0.5t40.5 2.5t34.5 7t23.5 13q11 12 24 31t24 39.5t20 39.5t13 30h35z" />
    <glyph glyph-name="Ccedilla" unicode="&#xc7;" horiz-adv-x="655" 
d="M642 173q-15 -35 -38.5 -68.5t-56.5 -60t-77 -42.5t-101 -16h-11v-41q21 0 44 -3t42.5 -11t32.5 -23t13 -39q0 -33 -17.5 -53.5t-47 -32t-67.5 -16t-80 -4.5v36h48t45.5 4.5t33.5 15.5t13 32q0 13 -9 20.5t-23 11.5t-30.5 4.5t-31.5 0.5v100q-65 7 -117.5 34.5t-90 72
t-58 105t-20.5 133.5q0 77 26.5 143.5t74 115t112 76.5t139.5 28q21 0 43 -4.5t42 -12t37.5 -17.5t28.5 -20l30 51h41l4 -255h-34q-14 42 -32 81.5t-44.5 70t-62.5 49t-84 18.5q-38 0 -74.5 -18.5t-64.5 -57t-45 -98t-17 -142.5q0 -66 19 -120t52 -93t76.5 -60.5t92.5 -21.5
q46 0 79 10.5t57.5 29.5t42 45t32.5 58l33 -16v0z" />
    <glyph glyph-name="Egrave" unicode="&#xc8;" horiz-adv-x="668" 
d="M631 0h-592v33q7 0 18 1t23 2.5t22.5 3.5t15.5 4q18 7 24.5 19.5t6.5 29.5v491q0 17 -6 29t-25 20q-7 3 -18 6t-22 5l-21.5 4t-17.5 2v33h551v-165h-37q-4 16 -15.5 37t-26.5 39.5t-32 32t-33 15.5q-18 2 -38.5 3t-44.5 1h-108v-273h80q42 0 58.5 11t25.5 20q6 6 11 16.5
t9 23t7 25t4 22.5h37v-279h-37q-1 11 -4 25t-7.5 27t-10 24t-9.5 16l-11 10.5t-15.5 10t-23.5 7.5t-34 3h-80v-205q0 -31 4.5 -49t17 -27.5t36 -12t61.5 -2.5h42q24 0 45.5 2t39.5 7t27 14q11 12 24 31t24 39.5t20 39.5t13 30h35zM369 725l-52.5 41.5l-40 30.5l-31 23
t-24.5 19q-18 14 -27 25t-9 30q0 14 11.5 26t28.5 12q19 0 33 -9t28 -34l37.5 -62.5t59.5 -89.5z" />
    <glyph glyph-name="Eacute" unicode="&#xc9;" horiz-adv-x="668" 
d="M631 0h-592v33q7 0 18 1t23 2.5t22.5 3.5t15.5 4q18 7 24.5 19.5t6.5 29.5v491q0 17 -6 29t-25 20q-7 3 -18 6t-22 5l-21.5 4t-17.5 2v33h551v-165h-37q-4 16 -15.5 37t-26.5 39.5t-32 32t-33 15.5q-18 2 -38.5 3t-44.5 1h-108v-273h80q42 0 58.5 11t25.5 20q6 6 11 16.5
t9 23t7 25t4 22.5h37v-279h-37q-1 11 -4 25t-7.5 27t-10 24t-9.5 16l-11 10.5t-15.5 10t-23.5 7.5t-34 3h-80v-205q0 -31 4.5 -49t17 -27.5t36 -12t61.5 -2.5h42q24 0 45.5 2t39.5 7t27 14q11 12 24 31t24 39.5t20 39.5t13 30h35zM475 894q0 -19 -9 -30t-27 -25
q-11 -9 -24.5 -19l-31 -23l-40 -30.5l-52.5 -41.5l-14 12l33.5 50l26 40l20.5 33l17 29q14 25 28 34t33 9q17 0 28.5 -12t11.5 -26z" />
    <glyph glyph-name="Ecircumflex" unicode="&#xca;" horiz-adv-x="668" 
d="M631 0h-592v33q7 0 18 1t23 2.5t22.5 3.5t15.5 4q18 7 24.5 19.5t6.5 29.5v491q0 17 -6 29t-25 20q-7 3 -18 6t-22 5l-21.5 4t-17.5 2v33h551v-165h-37q-4 16 -15.5 37t-26.5 39.5t-32 32t-33 15.5q-18 2 -38.5 3t-44.5 1h-108v-273h80q42 0 58.5 11t25.5 20q6 6 11 16.5
t9 23t7 25t4 22.5h37v-279h-37q-1 11 -4 25t-7.5 27t-10 24t-9.5 16l-11 10.5t-15.5 10t-23.5 7.5t-34 3h-80v-205q0 -31 4.5 -49t17 -27.5t36 -12t61.5 -2.5h42q24 0 45.5 2t39.5 7t27 14q11 12 24 31t24 39.5t20 39.5t13 30h35zM480 729l-141 134l-139 -134l-19 12
l69 100.5l47 70.5q10 14 16 18t28 4q11 0 17 -0.5t10 -3t7 -6.5t7 -10l48 -70.5l69 -102.5z" />
    <glyph glyph-name="Edieresis" unicode="&#xcb;" horiz-adv-x="668" 
d="M631 0h-592v33q7 0 18 1t23 2.5t22.5 3.5t15.5 4q18 7 24.5 19.5t6.5 29.5v491q0 17 -6 29t-25 20q-7 3 -18 6t-22 5l-21.5 4t-17.5 2v33h551v-165h-37q-4 16 -15.5 37t-26.5 39.5t-32 32t-33 15.5q-18 2 -38.5 3t-44.5 1h-108v-273h80q42 0 58.5 11t25.5 20q6 6 11 16.5
t9 23t7 25t4 22.5h37v-279h-37q-1 11 -4 25t-7.5 27t-10 24t-9.5 16l-11 10.5t-15.5 10t-23.5 7.5t-34 3h-80v-205q0 -31 4.5 -49t17 -27.5t36 -12t61.5 -2.5h42q24 0 45.5 2t39.5 7t27 14q11 12 24 31t24 39.5t20 39.5t13 30h35zM288 820q0 -25 -17 -43t-43 -18
q-23 0 -40 17t-17 40q0 24 17 41.5t40 17.5q26 0 43 -16.5t17 -38.5zM505 820q0 -25 -17 -43t-42 -18q-24 0 -41 17t-17 40q0 24 17 41.5t41 17.5q26 0 42.5 -16.5t16.5 -38.5z" />
    <glyph glyph-name="Igrave" unicode="&#xcc;" horiz-adv-x="408" 
d="M47 0v33q7 0 17.5 1l21 2t20 2.5t14.5 3.5q18 7 24.5 19t6.5 29v495q0 17 -6 28.5t-25 19.5q-14 5 -36.5 10.5t-36.5 6.5v33h314v-33q-14 -1 -36.5 -4t-36.5 -8q-19 -6 -25 -18.5t-6 -29.5v-495q0 -17 7 -28.5t24 -19.5q4 -2 13.5 -4l20.5 -4.5t21.5 -4t17.5 -1.5v-33
h-314zM232 725l-52.5 41.5l-40 30.5l-31 23t-24.5 19q-18 14 -27 25t-9 30q0 14 11.5 26t28.5 12q19 0 33 -9t28 -34l37.5 -62.5t59.5 -89.5z" />
    <glyph glyph-name="Iacute" unicode="&#xcd;" horiz-adv-x="408" 
d="M47 0v33q7 0 17.5 1l21 2t20 2.5t14.5 3.5q18 7 24.5 19t6.5 29v495q0 17 -6 28.5t-25 19.5q-14 5 -36.5 10.5t-36.5 6.5v33h314v-33q-14 -1 -36.5 -4t-36.5 -8q-19 -6 -25 -18.5t-6 -29.5v-495q0 -17 7 -28.5t24 -19.5q4 -2 13.5 -4l20.5 -4.5t21.5 -4t17.5 -1.5v-33
h-314zM363 894q0 -19 -9 -30t-27 -25q-11 -9 -24.5 -19l-31 -23l-40 -30.5l-52.5 -41.5l-14 12l33.5 50l26 40l20.5 33l17 29q14 25 28 34t33 9q17 0 28.5 -12t11.5 -26z" />
    <glyph glyph-name="Icircumflex" unicode="&#xce;" horiz-adv-x="408" 
d="M47 0v33q7 0 17.5 1l21 2t20 2.5t14.5 3.5q18 7 24.5 19t6.5 29v495q0 17 -6 28.5t-25 19.5q-14 5 -36.5 10.5t-36.5 6.5v33h314v-33q-14 -1 -36.5 -4t-36.5 -8q-19 -6 -25 -18.5t-6 -29.5v-495q0 -17 7 -28.5t24 -19.5q4 -2 13.5 -4l20.5 -4.5t21.5 -4t17.5 -1.5v-33
h-314zM344 729l-141 134l-139 -134l-19 12l69 100.5l47 70.5q10 14 16 18t28 4q11 0 17 -0.5t10 -3t7 -6.5t7 -10l48 -70.5l69 -102.5z" />
    <glyph glyph-name="Idieresis" unicode="&#xcf;" horiz-adv-x="408" 
d="M47 0v33q7 0 17.5 1l21 2t20 2.5t14.5 3.5q18 7 24.5 19t6.5 29v495q0 17 -6 28.5t-25 19.5q-14 5 -36.5 10.5t-36.5 6.5v33h314v-33q-14 -1 -36.5 -4t-36.5 -8q-19 -6 -25 -18.5t-6 -29.5v-495q0 -17 7 -28.5t24 -19.5q4 -2 13.5 -4l20.5 -4.5t21.5 -4t17.5 -1.5v-33
h-314zM155 820q0 -25 -17 -43t-43 -18q-23 0 -40 17t-17 40q0 24 17 41.5t40 17.5q26 0 43 -16.5t17 -38.5zM372 820q0 -25 -17 -43t-42 -18q-24 0 -41 17t-17 40q0 24 17 41.5t41 17.5q26 0 42.5 -16.5t16.5 -38.5z" />
    <glyph glyph-name="Eth" unicode="&#xd0;" horiz-adv-x="781" 
d="M620 338q0 68 -20 124.5t-56 97t-87.5 63t-114.5 22.5h-21q-11 0 -23 -0.5l-23.5 -1t-19.5 -0.5v-266h138v-42h-138v-219q5 -37 28 -57t81 -20q66 0 114 21.5t79.5 60.5t47 94t15.5 123zM743 337q0 -87 -34.5 -151t-90 -105t-126 -61t-142.5 -20h-306v33q7 0 18 0.5
t21.5 2t20 3t14.5 3.5q18 7 24.5 19.5t6.5 29.5v244h-101v42h101v207q0 17 -6.5 30t-24.5 21t-37 11t-33 4v33h322q34 0 75 -6.5t82.5 -22t80.5 -41.5t69 -64.5t48 -91t18 -120.5z" />
    <glyph glyph-name="Ntilde" unicode="&#xd1;" horiz-adv-x="798" 
d="M802 650q-7 0 -20 -2.5t-27 -6t-26.5 -7.5t-18.5 -8q-20 -13 -26.5 -45.5t-6.5 -88.5v-499h-42l-443 558v-350q0 -63 8.5 -93t25.5 -44q6 -5 20.5 -10.5t30.5 -10t30.5 -7.5t21.5 -3v-33h-310v33q7 0 20.5 3t28.5 7t27.5 8.5t16.5 7.5q18 13 25.5 43.5t7.5 93.5v332
q0 22 -8.5 44.5t-23.5 34.5q-9 7 -23 14.5t-29.5 13.5t-30 10.5t-24.5 4.5v33h211l413 -520v323q0 60 -8.5 92t-25.5 43q-7 4 -20.5 9t-29 9.5t-29.5 7.5t-23 3v33h308v-33v0zM609 881q-5 -18 -16.5 -40t-28 -40.5t-38 -31.5t-45.5 -13q-30 0 -51.5 8.5t-38.5 18.5
t-33.5 18.5t-37.5 8.5q-16 0 -26 -4.5t-18.5 -13.5t-15.5 -22t-17 -30l-23 10q6 17 17.5 39t27 41t36 32t44.5 13q29 0 50 -8.5t38.5 -18.5l33.5 -18.5t34 -8.5q23 0 36 5t21.5 14t13.5 21.5t13 28.5l24 -9v0z" />
    <glyph glyph-name="Ograve" unicode="&#xd2;" horiz-adv-x="777" 
d="M617 343q0 59 -12.5 115.5t-39.5 100.5t-70.5 71t-105.5 27q-107 0 -168 -83.5t-61 -234.5q0 -65 14 -122t42 -99.5t71 -67t102 -24.5q58 0 101 24t71 67t42 100.5t14 125.5zM738 346q0 -78 -24.5 -145t-79.5 -121q-49 -45 -110 -70.5t-139 -25.5q-69 0 -129.5 24
t-109.5 70q-50 47 -78.5 110.5t-28.5 145.5q0 164 97 261q51 52 115.5 78t137.5 26q71 0 134 -24.5t120 -79.5q45 -45 70 -110t25 -139zM429 725l-52.5 41.5l-40 30.5l-31 23t-24.5 19q-18 14 -27 25t-9 30q0 14 11.5 26t28.5 12q19 0 33 -9t28 -34l37.5 -62.5t59.5 -89.5z
" />
    <glyph glyph-name="Oacute" unicode="&#xd3;" horiz-adv-x="777" 
d="M617 343q0 59 -12.5 115.5t-39.5 100.5t-70.5 71t-105.5 27q-107 0 -168 -83.5t-61 -234.5q0 -65 14 -122t42 -99.5t71 -67t102 -24.5q58 0 101 24t71 67t42 100.5t14 125.5zM738 346q0 -78 -24.5 -145t-79.5 -121q-49 -45 -110 -70.5t-139 -25.5q-69 0 -129.5 24
t-109.5 70q-50 47 -78.5 110.5t-28.5 145.5q0 164 97 261q51 52 115.5 78t137.5 26q71 0 134 -24.5t120 -79.5q45 -45 70 -110t25 -139zM515 894q0 -19 -9 -30t-27 -25q-11 -9 -24.5 -19l-31 -23l-40 -30.5l-52.5 -41.5l-14 12l33.5 50l26 40l20.5 33l17 29q14 25 28 34
t33 9q17 0 28.5 -12t11.5 -26z" />
    <glyph glyph-name="Ocircumflex" unicode="&#xd4;" horiz-adv-x="777" 
d="M617 343q0 59 -12.5 115.5t-39.5 100.5t-70.5 71t-105.5 27q-107 0 -168 -83.5t-61 -234.5q0 -65 14 -122t42 -99.5t71 -67t102 -24.5q58 0 101 24t71 67t42 100.5t14 125.5zM738 346q0 -78 -24.5 -145t-79.5 -121q-49 -45 -110 -70.5t-139 -25.5q-69 0 -129.5 24
t-109.5 70q-50 47 -78.5 110.5t-28.5 145.5q0 164 97 261q51 52 115.5 78t137.5 26q71 0 134 -24.5t120 -79.5q45 -45 70 -110t25 -139zM523 729l-141 134l-139 -134l-19 12l69 100.5l47 70.5q10 14 16 18t28 4q11 0 17 -0.5t10 -3t7 -6.5t7 -10l48 -70.5l69 -102.5z" />
    <glyph glyph-name="Otilde" unicode="&#xd5;" horiz-adv-x="777" 
d="M617 343q0 59 -12.5 115.5t-39.5 100.5t-70.5 71t-105.5 27q-107 0 -168 -83.5t-61 -234.5q0 -65 14 -122t42 -99.5t71 -67t102 -24.5q58 0 101 24t71 67t42 100.5t14 125.5zM738 346q0 -78 -24.5 -145t-79.5 -121q-49 -45 -110 -70.5t-139 -25.5q-69 0 -129.5 24
t-109.5 70q-50 47 -78.5 110.5t-28.5 145.5q0 164 97 261q51 52 115.5 78t137.5 26q71 0 134 -24.5t120 -79.5q45 -45 70 -110t25 -139zM583 886q-5 -18 -16.5 -40t-28 -40.5t-38 -31.5t-45.5 -13q-30 0 -51.5 8.5t-38.5 18.5t-33.5 18.5t-37.5 8.5q-16 0 -26 -4.5
t-18.5 -13.5t-15.5 -22t-17 -30l-23 10q6 17 17.5 39t27 41t36 32t44.5 13q29 0 50 -8.5t38.5 -18.5l33.5 -18.5t34 -8.5q23 0 36 5t21.5 14t13.5 21.5t13 28.5l24 -9v0z" />
    <glyph glyph-name="Odieresis" unicode="&#xd6;" horiz-adv-x="777" 
d="M617 343q0 59 -12.5 115.5t-39.5 100.5t-70.5 71t-105.5 27q-107 0 -168 -83.5t-61 -234.5q0 -65 14 -122t42 -99.5t71 -67t102 -24.5q58 0 101 24t71 67t42 100.5t14 125.5zM738 346q0 -78 -24.5 -145t-79.5 -121q-49 -45 -110 -70.5t-139 -25.5q-69 0 -129.5 24
t-109.5 70q-50 47 -78.5 110.5t-28.5 145.5q0 164 97 261q51 52 115.5 78t137.5 26q71 0 134 -24.5t120 -79.5q45 -45 70 -110t25 -139zM334 820q0 -25 -17 -43t-43 -18q-23 0 -40 17t-17 40q0 24 17 41.5t40 17.5q26 0 43 -16.5t17 -38.5zM551 820q0 -25 -17 -43t-42 -18
q-24 0 -41 17t-17 40q0 24 17 41.5t41 17.5q26 0 42.5 -16.5t16.5 -38.5z" />
    <glyph glyph-name="Oslash" unicode="&#xd8;" horiz-adv-x="777" 
d="M618 343q0 50 -8.5 98.5t-26.5 89.5l-367 -415q29 -42 72 -66t101 -24t101 24t71.5 67t42.5 100.5t14 125.5zM560 568q-27 41 -69 65t-102 24q-53 0 -95.5 -21.5t-72.5 -62t-46 -100t-16 -134.5q0 -52 8.5 -100t26.5 -87l366 416v0zM738 346q0 -78 -24.5 -145t-79.5 -121
q-49 -45 -110 -70.5t-139 -25.5q-123 0 -218 75l-90 -102l-33 27l92 104q-45 46 -71 107t-26 139q0 164 97 261q51 52 115.5 78t137.5 26q60 0 114.5 -17.5t105.5 -56.5l90 102l34 -28l-91 -103q45 -46 70.5 -111t25.5 -139z" />
    <glyph glyph-name="Ugrave" unicode="&#xd9;" horiz-adv-x="798" 
d="M789 650q-7 0 -19 -2t-25.5 -5t-26.5 -7t-21 -9q-20 -13 -26.5 -49.5t-6.5 -83.5v-294q0 -61 -26 -102.5t-65 -66.5t-84.5 -36t-84.5 -11q-66 0 -116 16t-83.5 43t-51 62.5t-17.5 74.5v404q0 17 -7 29t-24 21q-14 7 -36 11t-34 5v33h311v-33q-14 -1 -36 -4t-36 -8
q-19 -6 -25 -19t-6 -30v-379q0 -27 6.5 -57.5t25.5 -56t54.5 -42.5t94.5 -17q60 0 97.5 18t58.5 44.5t28.5 57.5t7.5 57v274q0 112 -34 134q-9 6 -23 11t-28.5 8.5t-28 6t-22.5 2.5v33h309v-33v0zM444 725l-52.5 41.5l-40 30.5l-31 23t-24.5 19q-18 14 -27 25t-9 30
q0 14 11.5 26t28.5 12q19 0 33 -9t28 -34l37.5 -62.5t59.5 -89.5z" />
    <glyph glyph-name="Uacute" unicode="&#xda;" horiz-adv-x="798" 
d="M789 650q-7 0 -19 -2t-25.5 -5t-26.5 -7t-21 -9q-20 -13 -26.5 -49.5t-6.5 -83.5v-294q0 -61 -26 -102.5t-65 -66.5t-84.5 -36t-84.5 -11q-66 0 -116 16t-83.5 43t-51 62.5t-17.5 74.5v404q0 17 -7 29t-24 21q-14 7 -36 11t-34 5v33h311v-33q-14 -1 -36 -4t-36 -8
q-19 -6 -25 -19t-6 -30v-379q0 -27 6.5 -57.5t25.5 -56t54.5 -42.5t94.5 -17q60 0 97.5 18t58.5 44.5t28.5 57.5t7.5 57v274q0 112 -34 134q-9 6 -23 11t-28.5 8.5t-28 6t-22.5 2.5v33h309v-33v0zM555 894q0 -19 -9 -30t-27 -25q-11 -9 -24.5 -19l-31 -23l-40 -30.5
l-52.5 -41.5l-14 12l33.5 50l26 40l20.5 33l17 29q14 25 28 34t33 9q17 0 28.5 -12t11.5 -26z" />
    <glyph glyph-name="Ucircumflex" unicode="&#xdb;" horiz-adv-x="798" 
d="M789 650q-7 0 -19 -2t-25.5 -5t-26.5 -7t-21 -9q-20 -13 -26.5 -49.5t-6.5 -83.5v-294q0 -61 -26 -102.5t-65 -66.5t-84.5 -36t-84.5 -11q-66 0 -116 16t-83.5 43t-51 62.5t-17.5 74.5v404q0 17 -7 29t-24 21q-14 7 -36 11t-34 5v33h311v-33q-14 -1 -36 -4t-36 -8
q-19 -6 -25 -19t-6 -30v-379q0 -27 6.5 -57.5t25.5 -56t54.5 -42.5t94.5 -17q60 0 97.5 18t58.5 44.5t28.5 57.5t7.5 57v274q0 112 -34 134q-9 6 -23 11t-28.5 8.5t-28 6t-22.5 2.5v33h309v-33v0zM555 729l-141 134l-139 -134l-19 12l69 100.5l47 70.5q10 14 16 18t28 4
q11 0 17 -0.5t10 -3t7 -6.5t7 -10l48 -70.5l69 -102.5z" />
    <glyph glyph-name="Udieresis" unicode="&#xdc;" horiz-adv-x="798" 
d="M789 650q-7 0 -19 -2t-25.5 -5t-26.5 -7t-21 -9q-20 -13 -26.5 -49.5t-6.5 -83.5v-294q0 -61 -26 -102.5t-65 -66.5t-84.5 -36t-84.5 -11q-66 0 -116 16t-83.5 43t-51 62.5t-17.5 74.5v404q0 17 -7 29t-24 21q-14 7 -36 11t-34 5v33h311v-33q-14 -1 -36 -4t-36 -8
q-19 -6 -25 -19t-6 -30v-379q0 -27 6.5 -57.5t25.5 -56t54.5 -42.5t94.5 -17q60 0 97.5 18t58.5 44.5t28.5 57.5t7.5 57v274q0 112 -34 134q-9 6 -23 11t-28.5 8.5t-28 6t-22.5 2.5v33h309v-33v0zM365 820q0 -25 -17 -43t-43 -18q-23 0 -40 17t-17 40q0 24 17 41.5t40 17.5
q26 0 43 -16.5t17 -38.5zM582 820q0 -25 -17 -43t-42 -18q-24 0 -41 17t-17 40q0 24 17 41.5t41 17.5q26 0 42.5 -16.5t16.5 -38.5z" />
    <glyph glyph-name="Yacute" unicode="&#xdd;" horiz-adv-x="627" 
d="M661 650q-5 0 -13 -2t-16.5 -5l-16.5 -6t-12 -6l-16.5 -10t-12.5 -9t-12.5 -12.5l-16.5 -19.5q-20 -26 -38.5 -52.5t-36.5 -56.5l-36.5 -64l-40.5 -73q-15 -27 -25 -57t-10 -55v-123q0 -17 7 -29.5t24 -20.5q4 -2 15 -4.5t23.5 -5t24.5 -4.5t19 -2v-33h-332v33
q7 0 18.5 1t24 2.5t23.5 3.5t16 4q18 7 24.5 20t6.5 30v164q0 15 -7.5 33.5t-18.5 41.5l-65 123l-62 110q-16 27 -32 42t-34 26q-14 8 -32 11.5t-32 4.5v33h322v-33q-13 -1 -30.5 -1.5t-33 -3t-26.5 -7t-11 -12.5q0 -5 11.5 -29t31.5 -62l48.5 -89l61.5 -110l64.5 102.5
t50.5 84.5t33 60.5t12 29.5q0 11 -9.5 18t-24.5 10.5t-33 5.5t-35 3v33h260v-33v0zM498 894q0 -19 -9 -30t-27 -25q-11 -9 -24.5 -19l-31 -23l-40 -30.5l-52.5 -41.5l-14 12l33.5 50l26 40l20.5 33l17 29q14 25 28 34t33 9q17 0 28.5 -12t11.5 -26z" />
    <glyph glyph-name="Thorn" unicode="&#xde;" horiz-adv-x="633" 
d="M467 349q0 28 -6.5 55t-23 48.5t-44 34.5t-70.5 13h-68v-297h49q54 0 86 16t49.5 39t22.5 48t5 43zM591 374q0 -54 -22 -94t-58.5 -66t-83 -38.5t-94.5 -12.5h-78v-70q0 -17 6.5 -30t24.5 -20q10 -4 35 -6.5t44 -3.5v-33h-319v33q7 0 17 1t20.5 2.5t20 3t14.5 3.5
q18 7 24.5 20t6.5 30v492q0 17 -6 28.5t-25 19.5q-14 5 -36.5 10.5t-36.5 6.5v33h314v-33q-14 -1 -36.5 -4t-36.5 -8q-19 -6 -25 -18.5t-6 -29.5v-52h122q44 0 83 -11t68 -32t46 -51.5t17 -69.5z" />
    <glyph glyph-name="germandbls" unicode="&#xdf;" horiz-adv-x="588" 
d="M562 139q0 -30 -12 -57.5t-32.5 -49t-48.5 -34t-61 -12.5q-37 0 -63.5 8.5t-44 22.5t-26 32.5t-8.5 39.5q0 27 15.5 43t40.5 16q20 0 32.5 -13t12.5 -31q0 -17 -8.5 -27t-8.5 -24t14.5 -25t49.5 -11t58 20t23 58q0 16 -3.5 29.5t-14 28.5t-29.5 33t-51 43
q-39 31 -67.5 63.5t-28.5 73.5q0 24 8 41t20 30.5t25.5 26.5t25.5 29.5t20 40t8 57.5q0 65 -28.5 94t-68.5 29q-50 0 -80 -46t-33 -157q0 -11 -0.5 -24.5t-0.5 -26.5v-460h-166v31q14 1 25.5 2t22.5 4q27 9 27 46v333h-84v44h84v21q0 63 15.5 114.5t52.5 90.5q31 33 70 47
t77 14q31 0 60.5 -9t52 -26t36 -41.5t13.5 -56.5q0 -34 -8.5 -58.5t-21 -42t-27.5 -29.5l-27.5 -22t-21 -19.5t-8.5 -20.5t2 -21.5t11 -24t28 -32t52 -45.5q27 -21 46 -38.5t31 -35t17.5 -38t5.5 -48.5z" />
    <glyph glyph-name="agrave" unicode="&#xe0;" horiz-adv-x="498" 
d="M309 257q-38 -11 -69.5 -23.5t-54.5 -28.5t-36 -38t-13 -52q0 -39 18.5 -57t50.5 -18q39 0 60.5 15t39.5 36l4 166v0zM507 119q-4 -71 -33 -100t-77 -29q-35 0 -55.5 16t-32.5 51h-3q-27 -32 -66.5 -50.5t-84.5 -18.5q-52 0 -84 30t-32 80q0 32 8.5 54.5t22 38t31 25.5
t36.5 17q43 17 91 32t80 32v45q0 7 -2 23.5t-10.5 33.5t-26 30t-48.5 13q-24 0 -41 -8t-24 -16q0 -11 4.5 -28t4.5 -34t-15.5 -30.5t-42.5 -13.5q-25 0 -35 17t-10 37q0 23 15 43t39 34.5t53 23t58 8.5q37 0 68.5 -5t55 -21t36.5 -46t13 -80q0 -34 -1 -69.5t-1.5 -67
t-1.5 -56.5t-1 -37q0 -5 2 -13t7.5 -16t14 -14t20.5 -6q20 0 27.5 23.5t8.5 51.5h32v0zM291 534l-52.5 41.5l-40 30.5l-31 23t-24.5 19q-18 14 -27 25t-9 30q0 14 11.5 26t28.5 12q19 0 33 -9t28 -34l37.5 -62.5t59.5 -89.5z" />
    <glyph glyph-name="aacute" unicode="&#xe1;" horiz-adv-x="498" 
d="M309 257q-38 -11 -69.5 -23.5t-54.5 -28.5t-36 -38t-13 -52q0 -39 18.5 -57t50.5 -18q39 0 60.5 15t39.5 36l4 166v0zM507 119q-4 -71 -33 -100t-77 -29q-35 0 -55.5 16t-32.5 51h-3q-27 -32 -66.5 -50.5t-84.5 -18.5q-52 0 -84 30t-32 80q0 32 8.5 54.5t22 38t31 25.5
t36.5 17q43 17 91 32t80 32v45q0 7 -2 23.5t-10.5 33.5t-26 30t-48.5 13q-24 0 -41 -8t-24 -16q0 -11 4.5 -28t4.5 -34t-15.5 -30.5t-42.5 -13.5q-25 0 -35 17t-10 37q0 23 15 43t39 34.5t53 23t58 8.5q37 0 68.5 -5t55 -21t36.5 -46t13 -80q0 -34 -1 -69.5t-1.5 -67
t-1.5 -56.5t-1 -37q0 -5 2 -13t7.5 -16t14 -14t20.5 -6q20 0 27.5 23.5t8.5 51.5h32v0zM363 703q0 -19 -9 -30t-27 -25q-11 -9 -24.5 -19l-31 -23l-40 -30.5l-52.5 -41.5l-14 12l33.5 50l26 40l20.5 33l17 29q14 25 28 34t33 9q17 0 28.5 -12t11.5 -26z" />
    <glyph glyph-name="acircumflex" unicode="&#xe2;" horiz-adv-x="498" 
d="M309 257q-38 -11 -69.5 -23.5t-54.5 -28.5t-36 -38t-13 -52q0 -39 18.5 -57t50.5 -18q39 0 60.5 15t39.5 36l4 166v0zM507 119q-4 -71 -33 -100t-77 -29q-35 0 -55.5 16t-32.5 51h-3q-27 -32 -66.5 -50.5t-84.5 -18.5q-52 0 -84 30t-32 80q0 32 8.5 54.5t22 38t31 25.5
t36.5 17q43 17 91 32t80 32v45q0 7 -2 23.5t-10.5 33.5t-26 30t-48.5 13q-24 0 -41 -8t-24 -16q0 -11 4.5 -28t4.5 -34t-15.5 -30.5t-42.5 -13.5q-25 0 -35 17t-10 37q0 23 15 43t39 34.5t53 23t58 8.5q37 0 68.5 -5t55 -21t36.5 -46t13 -80q0 -34 -1 -69.5t-1.5 -67
t-1.5 -56.5t-1 -37q0 -5 2 -13t7.5 -16t14 -14t20.5 -6q20 0 27.5 23.5t8.5 51.5h32v0zM374 538l-141 134l-139 -134l-19 12l69 100.5l47 70.5q10 14 16 18t28 4q11 0 17 -0.5t10 -3t7 -6.5t7 -10l48 -70.5l69 -102.5z" />
    <glyph glyph-name="atilde" unicode="&#xe3;" horiz-adv-x="498" 
d="M309 257q-38 -11 -69.5 -23.5t-54.5 -28.5t-36 -38t-13 -52q0 -39 18.5 -57t50.5 -18q39 0 60.5 15t39.5 36l4 166v0zM507 119q-4 -71 -33 -100t-77 -29q-35 0 -55.5 16t-32.5 51h-3q-27 -32 -66.5 -50.5t-84.5 -18.5q-52 0 -84 30t-32 80q0 32 8.5 54.5t22 38t31 25.5
t36.5 17q43 17 91 32t80 32v45q0 7 -2 23.5t-10.5 33.5t-26 30t-48.5 13q-24 0 -41 -8t-24 -16q0 -11 4.5 -28t4.5 -34t-15.5 -30.5t-42.5 -13.5q-25 0 -35 17t-10 37q0 23 15 43t39 34.5t53 23t58 8.5q37 0 68.5 -5t55 -21t36.5 -46t13 -80q0 -34 -1 -69.5t-1.5 -67
t-1.5 -56.5t-1 -37q0 -5 2 -13t7.5 -16t14 -14t20.5 -6q20 0 27.5 23.5t8.5 51.5h32v0zM438 700q-5 -18 -16.5 -40t-28 -40.5t-38 -31.5t-45.5 -13q-30 0 -51.5 8.5t-38.5 18.5t-33.5 18.5t-37.5 8.5q-16 0 -26 -4.5t-18.5 -13.5t-15.5 -22t-17 -30l-23 10q6 17 17.5 39
t27 41t36 32t44.5 13q29 0 50 -8.5t38.5 -18.5l33.5 -18.5t34 -8.5q23 0 36 5t21.5 14t13.5 21.5t13 28.5l24 -9v0z" />
    <glyph glyph-name="adieresis" unicode="&#xe4;" horiz-adv-x="498" 
d="M309 257q-38 -11 -69.5 -23.5t-54.5 -28.5t-36 -38t-13 -52q0 -39 18.5 -57t50.5 -18q39 0 60.5 15t39.5 36l4 166v0zM507 119q-4 -71 -33 -100t-77 -29q-35 0 -55.5 16t-32.5 51h-3q-27 -32 -66.5 -50.5t-84.5 -18.5q-52 0 -84 30t-32 80q0 32 8.5 54.5t22 38t31 25.5
t36.5 17q43 17 91 32t80 32v45q0 7 -2 23.5t-10.5 33.5t-26 30t-48.5 13q-24 0 -41 -8t-24 -16q0 -11 4.5 -28t4.5 -34t-15.5 -30.5t-42.5 -13.5q-25 0 -35 17t-10 37q0 23 15 43t39 34.5t53 23t58 8.5q37 0 68.5 -5t55 -21t36.5 -46t13 -80q0 -34 -1 -69.5t-1.5 -67
t-1.5 -56.5t-1 -37q0 -5 2 -13t7.5 -16t14 -14t20.5 -6q20 0 27.5 23.5t8.5 51.5h32v0zM188 659q0 -25 -17 -43t-43 -18q-23 0 -40 17t-17 40q0 24 17 41.5t40 17.5q26 0 43 -16.5t17 -38.5zM405 659q0 -25 -17 -43t-42 -18q-24 0 -41 17t-17 40q0 24 17 41.5t41 17.5
q26 0 42.5 -16.5t16.5 -38.5z" />
    <glyph glyph-name="aring" unicode="&#xe5;" horiz-adv-x="498" 
d="M309 257q-38 -11 -69.5 -23.5t-54.5 -28.5t-36 -38t-13 -52q0 -39 18.5 -57t50.5 -18q39 0 60.5 15t39.5 36l4 166v0zM507 119q-4 -71 -33 -100t-77 -29q-35 0 -55.5 16t-32.5 51h-3q-27 -32 -66.5 -50.5t-84.5 -18.5q-52 0 -84 30t-32 80q0 32 8.5 54.5t22 38t31 25.5
t36.5 17q43 17 91 32t80 32v45q0 7 -2 23.5t-10.5 33.5t-26 30t-48.5 13q-24 0 -41 -8t-24 -16q0 -11 4.5 -28t4.5 -34t-15.5 -30.5t-42.5 -13.5q-25 0 -35 17t-10 37q0 23 15 43t39 34.5t53 23t58 8.5q37 0 68.5 -5t55 -21t36.5 -46t13 -80q0 -34 -1 -69.5t-1.5 -67
t-1.5 -56.5t-1 -37q0 -5 2 -13t7.5 -16t14 -14t20.5 -6q20 0 27.5 23.5t8.5 51.5h32v0zM292 638q0 30 -15 50t-44 20q-28 0 -43.5 -19t-15.5 -51q0 -31 15 -50.5t44 -19.5t44 19t15 51zM341 638q0 -44 -30.5 -72t-77.5 -28q-48 0 -78 27.5t-30 72.5q0 22 8.5 40.5t23.5 31.5
t34.5 20.5t41.5 7.5q45 0 76.5 -27.5t31.5 -72.5z" />
    <glyph glyph-name="ae" unicode="&#xe6;" horiz-adv-x="720" 
d="M308 257q-38 -12 -69.5 -24t-55 -28.5t-36.5 -39.5t-13 -56q0 -42 19 -61.5t52 -19.5q40 0 62.5 17.5t40.5 40.5v171zM593 287q0 25 -3 52.5t-12 50.5t-26 37.5t-45 14.5q-48 0 -75 -42t-35 -115l196 2v0zM701 107q-26 -54 -74 -86.5t-111 -32.5q-65 0 -107.5 25.5
t-69.5 68.5h-3q-38 -52 -82 -73t-98 -21t-86.5 29t-32.5 77q0 31 8.5 52t22.5 36t32 24.5t38 16.5q45 17 91 31t78 32v56q0 7 -2 23.5t-10.5 33.5t-26 30.5t-48.5 13.5q-29 0 -43.5 -12t-21.5 -20q0 -11 4.5 -26.5t4.5 -32.5q0 -16 -15.5 -29.5t-42.5 -13.5q-25 0 -35 16
t-10 36q0 22 15 41.5t39 33t53 21.5t58 8q48 0 88 -11.5t63 -41.5q25 22 58.5 37.5t72.5 15.5q51 0 86.5 -16.5t57.5 -43.5t32 -62t10 -73v-7h-297v-16q0 -48 8.5 -87.5t26.5 -68t45.5 -44t66.5 -15.5q30 0 50 5t35 15.5t27.5 27t26.5 39.5l18 -12v0z" />
    <glyph glyph-name="ccedilla" unicode="&#xe7;" horiz-adv-x="450" 
d="M449 107q-14 -25 -34.5 -46.5t-45 -37.5t-53 -25.5t-59.5 -9.5h-11q-5 0 -10 1v-44q21 0 44 -3t42.5 -11t32.5 -23t13 -39q0 -33 -17.5 -53.5t-47 -32t-67.5 -16t-80 -4.5v36h48t45.5 4.5t33.5 15.5t13 32q0 13 -9 20.5t-23 11.5t-30.5 4.5t-31.5 0.5v105q-42 9 -73.5 30
t-52.5 52.5t-31.5 71.5t-10.5 86q0 47 16 91t46 77.5t72 53.5t95 20q40 0 70 -9.5t50 -26t30 -38t10 -44.5q0 -64 -56 -64q-8 0 -17.5 2.5t-18 8t-14.5 15t-6 24.5q0 16 2 24.5t5 14.5t5 10.5t2 11.5q-4 22 -20 29.5t-44 7.5q-23 0 -45.5 -10.5t-40.5 -34.5t-29 -63t-11 -96
q0 -42 10 -78.5t29 -63t46 -41.5t61 -15q48 0 79 22t58 66l31 -20v0z" />
    <glyph glyph-name="egrave" unicode="&#xe8;" horiz-adv-x="472" 
d="M345 290q0 27 -4 54t-14.5 48.5t-29.5 35t-48 13.5q-48 0 -81.5 -41t-35.5 -112l213 2v0zM452 109q-27 -54 -77 -87.5t-115 -33.5q-58 0 -100.5 19.5t-70.5 53.5t-41.5 78.5t-13.5 95.5q0 46 15 89.5t42.5 77t67.5 53.5t91 20q52 0 88.5 -16t59.5 -43t33 -62.5t10 -74.5
v-26h-309q0 -48 9 -87.5t27.5 -67.5t48 -43.5t71.5 -15.5q25 0 44.5 6t35 17t28 28t25.5 38l31 -19v0zM302 534l-52.5 41.5l-40 30.5l-31 23t-24.5 19q-18 14 -27 25t-9 30q0 14 11.5 26t28.5 12q19 0 33 -9t28 -34l37.5 -62.5t59.5 -89.5z" />
    <glyph glyph-name="eacute" unicode="&#xe9;" horiz-adv-x="472" 
d="M345 290q0 27 -4 54t-14.5 48.5t-29.5 35t-48 13.5q-48 0 -81.5 -41t-35.5 -112l213 2v0zM452 109q-27 -54 -77 -87.5t-115 -33.5q-58 0 -100.5 19.5t-70.5 53.5t-41.5 78.5t-13.5 95.5q0 46 15 89.5t42.5 77t67.5 53.5t91 20q52 0 88.5 -16t59.5 -43t33 -62.5t10 -74.5
v-26h-309q0 -48 9 -87.5t27.5 -67.5t48 -43.5t71.5 -15.5q25 0 44.5 6t35 17t28 28t25.5 38l31 -19v0zM390 703q0 -19 -9 -30t-27 -25q-11 -9 -24.5 -19l-31 -23l-40 -30.5l-52.5 -41.5l-14 12l33.5 50l26 40l20.5 33l17 29q14 25 28 34t33 9q17 0 28.5 -12t11.5 -26z" />
    <glyph glyph-name="ecircumflex" unicode="&#xea;" horiz-adv-x="472" 
d="M345 290q0 27 -4 54t-14.5 48.5t-29.5 35t-48 13.5q-48 0 -81.5 -41t-35.5 -112l213 2v0zM452 109q-27 -54 -77 -87.5t-115 -33.5q-58 0 -100.5 19.5t-70.5 53.5t-41.5 78.5t-13.5 95.5q0 46 15 89.5t42.5 77t67.5 53.5t91 20q52 0 88.5 -16t59.5 -43t33 -62.5t10 -74.5
v-26h-309q0 -48 9 -87.5t27.5 -67.5t48 -43.5t71.5 -15.5q25 0 44.5 6t35 17t28 28t25.5 38l31 -19v0zM389 538l-141 134l-139 -134l-19 12l69 100.5l47 70.5q10 14 16 18t28 4q11 0 17 -0.5t10 -3t7 -6.5t7 -10l48 -70.5l69 -102.5z" />
    <glyph glyph-name="edieresis" unicode="&#xeb;" horiz-adv-x="472" 
d="M345 290q0 27 -4 54t-14.5 48.5t-29.5 35t-48 13.5q-48 0 -81.5 -41t-35.5 -112l213 2v0zM452 109q-27 -54 -77 -87.5t-115 -33.5q-58 0 -100.5 19.5t-70.5 53.5t-41.5 78.5t-13.5 95.5q0 46 15 89.5t42.5 77t67.5 53.5t91 20q52 0 88.5 -16t59.5 -43t33 -62.5t10 -74.5
v-26h-309q0 -48 9 -87.5t27.5 -67.5t48 -43.5t71.5 -15.5q25 0 44.5 6t35 17t28 28t25.5 38l31 -19v0zM202 659q0 -25 -17 -43t-43 -18q-23 0 -40 17t-17 40q0 24 17 41.5t40 17.5q26 0 43 -16.5t17 -38.5zM419 659q0 -25 -17 -43t-42 -18q-24 0 -41 17t-17 40q0 24 17 41.5
t41 17.5q26 0 42.5 -16.5t16.5 -38.5z" />
    <glyph glyph-name="igrave" unicode="&#xec;" horiz-adv-x="291" 
d="M35 0v31q14 1 23.5 2t20.5 4q27 9 27 44v280q-3 34 -27 50q-9 6 -27 10.5t-32 5.5v30l170 11l7 -7v-374q0 -35 27 -45q11 -5 20.5 -7.5t23.5 -3.5v-31h-233zM198 534l-52.5 41.5l-40 30.5l-31 23t-24.5 19q-18 14 -27 25t-9 30q0 14 11.5 26t28.5 12q19 0 33 -9t28 -34
l37.5 -62.5t59.5 -89.5z" />
    <glyph glyph-name="iacute" unicode="&#xed;" horiz-adv-x="291" 
d="M35 0v31q14 1 23.5 2t20.5 4q27 9 27 44v280q-3 34 -27 50q-9 6 -27 10.5t-32 5.5v30l170 11l7 -7v-374q0 -35 27 -45q11 -5 20.5 -7.5t23.5 -3.5v-31h-233zM251 703q0 -19 -9 -30t-27 -25q-11 -9 -24.5 -19l-31 -23l-40 -30.5l-52.5 -41.5l-14 12l33.5 50l26 40l20.5 33
l17 29q14 25 28 34t33 9q17 0 28.5 -12t11.5 -26z" />
    <glyph glyph-name="icircumflex" unicode="&#xee;" horiz-adv-x="291" 
d="M35 0v31q14 1 23.5 2t20.5 4q27 9 27 44v280q-3 34 -27 50q-9 6 -27 10.5t-32 5.5v30l170 11l7 -7v-374q0 -35 27 -45q11 -5 20.5 -7.5t23.5 -3.5v-31h-233zM244 538l-116 139l-114 -139l-19 12q37 60 57.5 101t37.5 70q4 7 7 11.5t6.5 7t9.5 3t17 0.5t16.5 -0.5t9 -3
t5.5 -6.5t6 -10q17 -28 38 -69.5t58 -103.5z" />
    <glyph glyph-name="idieresis" unicode="&#xef;" horiz-adv-x="291" 
d="M35 0v31q14 1 23.5 2t20.5 4q27 9 27 44v280q-3 34 -27 50q-9 6 -27 10.5t-32 5.5v30l170 11l7 -7v-374q0 -35 27 -45q11 -5 20.5 -7.5t23.5 -3.5v-31h-233zM99 659q0 -25 -16.5 -43t-42.5 -18q-23 0 -39.5 17t-16.5 40q0 24 16.5 41.5t39.5 17.5q26 0 42.5 -16.5
t16.5 -38.5zM286 659q0 -25 -16.5 -42.5t-41.5 -17.5q-24 0 -40.5 16.5t-16.5 39.5q0 24 16.5 41.5t40.5 17.5q26 0 42 -16.5t16 -38.5z" />
    <glyph glyph-name="eth" unicode="&#xf0;" horiz-adv-x="530" 
d="M392 247q0 39 -8 74t-23.5 61.5t-39.5 42t-56 15.5q-38 0 -63.5 -17.5t-40.5 -45.5t-21 -64t-6 -72q0 -50 7.5 -91t23.5 -70t40.5 -44.5t58.5 -15.5q35 0 59.5 19.5t39.5 51t22 72.5t7 84zM494 295q0 -68 -15 -124.5t-45 -97.5t-74 -64t-101 -23q-44 0 -84.5 16.5t-72 48
t-50.5 78t-19 106.5q0 54 16.5 98t45.5 75.5t70 49t90 17.5q46 0 80.5 -21t51.5 -47l4 1q-7 62 -29 118t-51 98l-115 -70l-22 35l113 66q-17 20 -38 38t-45 34l21 23q13 -7 28.5 -16.5t29.5 -19.5t26 -19.5t20 -16.5l98 60l22 -35l-90 -53q66 -63 100.5 -150t34.5 -205z" />
    <glyph glyph-name="ntilde" unicode="&#xf1;" horiz-adv-x="589" 
d="M330 0v31q14 1 25 2t22 4q27 9 27 44v231q0 52 -25.5 79.5t-57.5 27.5q-27 0 -48.5 -8t-37 -19t-25.5 -23t-14 -21v-262q0 -32 27 -44q11 -5 22.5 -7.5t24.5 -3.5v-31h-236v31q14 1 23.5 2t20.5 4q27 9 27 44v280q-2 16 -8.5 30.5t-18.5 22.5q-9 6 -22 9t-27 4v30l160 11
l7 -7v-68h2l29 28.5t34 26.5t43 19.5t56 7.5q70 0 103 -43t33 -115v-232q0 -32 26 -44q11 -5 20.5 -7t23.5 -3v-31h-236zM501 700q-5 -18 -16.5 -40t-28 -40.5t-38 -31.5t-45.5 -13q-30 0 -51.5 8.5t-38.5 18.5t-33.5 18.5t-37.5 8.5q-16 0 -26 -4.5t-18.5 -13.5t-15.5 -22
t-17 -30l-23 10q6 17 17.5 39t27 41t36 32t44.5 13q29 0 50 -8.5t38.5 -18.5l33.5 -18.5t34 -8.5q23 0 36 5t21.5 14t13.5 21.5t13 28.5l24 -9v0z" />
    <glyph glyph-name="ograve" unicode="&#xf2;" horiz-adv-x="528" 
d="M393 235q0 38 -6.5 75t-21.5 66t-39.5 47t-60.5 18q-39 0 -64.5 -19t-40 -48.5t-20.5 -65.5t-6 -71q0 -44 7 -83t23 -69t41 -47.5t60 -17.5q33 0 57.5 17t40 46.5t23 68.5t7.5 83zM494 236q0 -51 -15.5 -96.5t-45.5 -79.5t-73.5 -54t-100.5 -20q-45 0 -86 17t-72 48.5
t-49.5 76.5t-18.5 101q0 54 16.5 99.5t47.5 78t73.5 50.5t95.5 18q52 0 94.5 -18t72 -50.5t45.5 -76t16 -94.5zM328 534l-52.5 41.5l-40 30.5l-31 23t-24.5 19q-18 14 -27 25t-9 30q0 14 11.5 26t28.5 12q19 0 33 -9t28 -34l37.5 -62.5t59.5 -89.5z" />
    <glyph glyph-name="oacute" unicode="&#xf3;" horiz-adv-x="528" 
d="M393 235q0 38 -6.5 75t-21.5 66t-39.5 47t-60.5 18q-39 0 -64.5 -19t-40 -48.5t-20.5 -65.5t-6 -71q0 -44 7 -83t23 -69t41 -47.5t60 -17.5q33 0 57.5 17t40 46.5t23 68.5t7.5 83zM494 236q0 -51 -15.5 -96.5t-45.5 -79.5t-73.5 -54t-100.5 -20q-45 0 -86 17t-72 48.5
t-49.5 76.5t-18.5 101q0 54 16.5 99.5t47.5 78t73.5 50.5t95.5 18q52 0 94.5 -18t72 -50.5t45.5 -76t16 -94.5zM375 703q0 -19 -9 -30t-27 -25q-11 -9 -24.5 -19l-31 -23l-40 -30.5l-52.5 -41.5l-14 12l33.5 50l26 40l20.5 33l17 29q14 25 28 34t33 9q17 0 28.5 -12
t11.5 -26z" />
    <glyph glyph-name="ocircumflex" unicode="&#xf4;" horiz-adv-x="528" 
d="M393 235q0 38 -6.5 75t-21.5 66t-39.5 47t-60.5 18q-39 0 -64.5 -19t-40 -48.5t-20.5 -65.5t-6 -71q0 -44 7 -83t23 -69t41 -47.5t60 -17.5q33 0 57.5 17t40 46.5t23 68.5t7.5 83zM494 236q0 -51 -15.5 -96.5t-45.5 -79.5t-73.5 -54t-100.5 -20q-45 0 -86 17t-72 48.5
t-49.5 76.5t-18.5 101q0 54 16.5 99.5t47.5 78t73.5 50.5t95.5 18q52 0 94.5 -18t72 -50.5t45.5 -76t16 -94.5zM405 538l-141 134l-139 -134l-19 12l69 100.5l47 70.5q10 14 16 18t28 4q11 0 17 -0.5t10 -3t7 -6.5t7 -10l48 -70.5l69 -102.5z" />
    <glyph glyph-name="otilde" unicode="&#xf5;" horiz-adv-x="528" 
d="M393 235q0 38 -6.5 75t-21.5 66t-39.5 47t-60.5 18q-39 0 -64.5 -19t-40 -48.5t-20.5 -65.5t-6 -71q0 -44 7 -83t23 -69t41 -47.5t60 -17.5q33 0 57.5 17t40 46.5t23 68.5t7.5 83zM494 236q0 -51 -15.5 -96.5t-45.5 -79.5t-73.5 -54t-100.5 -20q-45 0 -86 17t-72 48.5
t-49.5 76.5t-18.5 101q0 54 16.5 99.5t47.5 78t73.5 50.5t95.5 18q52 0 94.5 -18t72 -50.5t45.5 -76t16 -94.5zM460 700q-5 -18 -16.5 -40t-28 -40.5t-38 -31.5t-45.5 -13q-30 0 -51.5 8.5t-38.5 18.5t-33.5 18.5t-37.5 8.5q-16 0 -26 -4.5t-18.5 -13.5t-15.5 -22t-17 -30
l-23 10q6 17 17.5 39t27 41t36 32t44.5 13q29 0 50 -8.5t38.5 -18.5l33.5 -18.5t34 -8.5q23 0 36 5t21.5 14t13.5 21.5t13 28.5l24 -9v0z" />
    <glyph glyph-name="odieresis" unicode="&#xf6;" horiz-adv-x="528" 
d="M393 235q0 38 -6.5 75t-21.5 66t-39.5 47t-60.5 18q-39 0 -64.5 -19t-40 -48.5t-20.5 -65.5t-6 -71q0 -44 7 -83t23 -69t41 -47.5t60 -17.5q33 0 57.5 17t40 46.5t23 68.5t7.5 83zM494 236q0 -51 -15.5 -96.5t-45.5 -79.5t-73.5 -54t-100.5 -20q-45 0 -86 17t-72 48.5
t-49.5 76.5t-18.5 101q0 54 16.5 99.5t47.5 78t73.5 50.5t95.5 18q52 0 94.5 -18t72 -50.5t45.5 -76t16 -94.5zM215 659q0 -25 -17 -43t-43 -18q-23 0 -40 17t-17 40q0 24 17 41.5t40 17.5q26 0 43 -16.5t17 -38.5zM432 659q0 -25 -17 -43t-42 -18q-24 0 -41 17t-17 40
q0 24 17 41.5t41 17.5q26 0 42.5 -16.5t16.5 -38.5z" />
    <glyph glyph-name="oslash" unicode="&#xf8;" horiz-adv-x="528" 
d="M394 235q0 27 -3 55t-10 52l-217 -259q17 -29 41.5 -46t59.5 -17q33 0 57.5 17t40.5 46.5t23.5 68.5t7.5 83zM364 381q-15 27 -39.5 43.5t-59.5 16.5q-39 0 -64.5 -19t-40.5 -48.5t-21 -65.5t-6 -71q0 -63 14 -116l217 260v0zM494 236q0 -51 -15.5 -96.5t-45.5 -79.5
t-73.5 -54t-100.5 -20q-38 0 -72.5 11.5t-63.5 34.5l-59 -70l-31 24l61 73q-28 32 -44.5 74.5t-16.5 95.5q0 54 16.5 99.5t47.5 78t73.5 50.5t95.5 18q42 0 76.5 -11.5t62.5 -32.5l57 69l32 -25l-59 -71q29 -32 44 -74.5t15 -93.5z" />
    <glyph glyph-name="ugrave" unicode="&#xf9;" horiz-adv-x="572" 
d="M392 -2l-7 7v61h-3l-29 -28t-33 -25t-42 -18t-56 -7q-35 0 -59.5 12t-40.5 34t-23 52t-7 65v212q-2 19 -8 30.5t-18 19.5q-9 6 -22.5 9t-27.5 4v30l161 12l7 -7v-317q0 -52 23.5 -78.5t55.5 -26.5q27 0 47.5 8t35.5 19t24 22.5t14 19.5v258q-3 34 -26 50q-9 6 -27 7.5
t-38 2.5v30l175 12l7 -7v-364q3 -32 26 -48q9 -6 21.5 -7.5t26.5 -2.5v-30zM336 534l-52.5 41.5l-40 30.5l-31 23t-24.5 19q-18 14 -27 25t-9 30q0 14 11.5 26t28.5 12q19 0 33 -9t28 -34l37.5 -62.5t59.5 -89.5z" />
    <glyph glyph-name="uacute" unicode="&#xfa;" horiz-adv-x="572" 
d="M392 -2l-7 7v61h-3l-29 -28t-33 -25t-42 -18t-56 -7q-35 0 -59.5 12t-40.5 34t-23 52t-7 65v212q-2 19 -8 30.5t-18 19.5q-9 6 -22.5 9t-27.5 4v30l161 12l7 -7v-317q0 -52 23.5 -78.5t55.5 -26.5q27 0 47.5 8t35.5 19t24 22.5t14 19.5v258q-3 34 -26 50q-9 6 -27 7.5
t-38 2.5v30l175 12l7 -7v-364q3 -32 26 -48q9 -6 21.5 -7.5t26.5 -2.5v-30zM412 703q0 -19 -9 -30t-27 -25q-11 -9 -24.5 -19l-31 -23l-40 -30.5l-52.5 -41.5l-14 12l33.5 50l26 40l20.5 33l17 29q14 25 28 34t33 9q17 0 28.5 -12t11.5 -26z" />
    <glyph glyph-name="ucircumflex" unicode="&#xfb;" horiz-adv-x="572" 
d="M392 -2l-7 7v61h-3l-29 -28t-33 -25t-42 -18t-56 -7q-35 0 -59.5 12t-40.5 34t-23 52t-7 65v212q-2 19 -8 30.5t-18 19.5q-9 6 -22.5 9t-27.5 4v30l161 12l7 -7v-317q0 -52 23.5 -78.5t55.5 -26.5q27 0 47.5 8t35.5 19t24 22.5t14 19.5v258q-3 34 -26 50q-9 6 -27 7.5
t-38 2.5v30l175 12l7 -7v-364q3 -32 26 -48q9 -6 21.5 -7.5t26.5 -2.5v-30zM408 538l-141 134l-139 -134l-19 12l69 100.5l47 70.5q10 14 16 18t28 4q11 0 17 -0.5t10 -3t7 -6.5t7 -10l48 -70.5l69 -102.5z" />
    <glyph glyph-name="udieresis" unicode="&#xfc;" horiz-adv-x="572" 
d="M392 -2l-7 7v61h-3l-29 -28t-33 -25t-42 -18t-56 -7q-35 0 -59.5 12t-40.5 34t-23 52t-7 65v212q-2 19 -8 30.5t-18 19.5q-9 6 -22.5 9t-27.5 4v30l161 12l7 -7v-317q0 -52 23.5 -78.5t55.5 -26.5q27 0 47.5 8t35.5 19t24 22.5t14 19.5v258q-3 34 -26 50q-9 6 -27 7.5
t-38 2.5v30l175 12l7 -7v-364q3 -32 26 -48q9 -6 21.5 -7.5t26.5 -2.5v-30zM222 659q0 -25 -17 -43t-43 -18q-23 0 -40 17t-17 40q0 24 17 41.5t40 17.5q26 0 43 -16.5t17 -38.5zM439 659q0 -25 -17 -43t-42 -18q-24 0 -41 17t-17 40q0 24 17 41.5t41 17.5q26 0 42.5 -16.5
t16.5 -38.5z" />
    <glyph glyph-name="yacute" unicode="&#xfd;" horiz-adv-x="470" 
d="M488 433q-7 -1 -17.5 -6t-21.5 -12.5t-20.5 -17t-14.5 -20.5q-9 -20 -21.5 -50.5l-27.5 -66l-30.5 -73.5l-30.5 -73l-34.5 -87t-17.5 -42q-33 -76 -58 -118.5t-46 -63t-41 -25t-43 -4.5q-10 0 -23 3.5t-24 11.5t-19 21t-8 32q0 20 15.5 39t41.5 19q8 0 17.5 -2t17 -8
t12.5 -15.5t5 -24.5v-25q23 5 44.5 32.5t38.5 59.5q20 37 38 83l-44.5 111.5l-35 85l-34.5 82l-43 103.5q-9 21 -30.5 33.5t-43.5 15.5v31h219v-33q-9 0 -18.5 -1.5t-17.5 -4t-13 -6t-5 -9.5q0 -4 7 -21q7 -19 19 -48l26 -64.5l30 -74.5l32 -78h4l26 63l23 57l23 58.5
l27 67.5q2 5 4 13.5t2 14.5q0 7 -8 13.5t-18.5 11t-21.5 7.5t-17 4v30h176v-29v0zM415 703q0 -19 -9 -30t-27 -25q-11 -9 -24.5 -19l-31 -23l-40 -30.5l-52.5 -41.5l-14 12l33.5 50l26 40l20.5 33l17 29q14 25 28 34t33 9q17 0 28.5 -12t11.5 -26z" />
    <glyph glyph-name="thorn" unicode="&#xfe;" horiz-adv-x="556" 
d="M419 228q0 36 -7.5 71t-24.5 62.5t-43.5 44.5t-64.5 17q-36 0 -61 -13t-43 -33v-279q4 -12 12.5 -25.5t22 -25t32.5 -19t44 -7.5q57 0 95 53t38 154zM521 229q0 -53 -19 -97t-50.5 -76.5t-72.5 -50.5t-85 -18t-71 9.5t-44 22.5h-4v-154q0 -35 28 -46q6 -2 15 -4.5
t18.5 -4.5t19 -3.5t16.5 -1.5v-31h-269v31q14 1 29 3t26 5q14 5 20 17t6 29v775q0 16 -7.5 32.5t-19.5 24.5q-5 3 -13 5.5t-17.5 4l-19 3t-16.5 1.5v30l177 11l7 -7v-325l3 -1q9 9 22 20t30.5 20.5t38 15.5t44.5 6q43 0 81 -17.5t66 -49.5t44.5 -77.5t16.5 -101.5z" />
    <glyph glyph-name="ydieresis" unicode="&#xff;" horiz-adv-x="470" 
d="M488 433q-7 -1 -17.5 -6t-21.5 -12.5t-20.5 -17t-14.5 -20.5q-9 -20 -21.5 -50.5l-27.5 -66l-30.5 -73.5l-30.5 -73l-34.5 -87t-17.5 -42q-33 -76 -58 -118.5t-46 -63t-41 -25t-43 -4.5q-10 0 -23 3.5t-24 11.5t-19 21t-8 32q0 20 15.5 39t41.5 19q8 0 17.5 -2t17 -8
t12.5 -15.5t5 -24.5v-25q23 5 44.5 32.5t38.5 59.5q20 37 38 83l-44.5 111.5l-35 85l-34.5 82l-43 103.5q-9 21 -30.5 33.5t-43.5 15.5v31h219v-33q-9 0 -18.5 -1.5t-17.5 -4t-13 -6t-5 -9.5q0 -4 7 -21q7 -19 19 -48l26 -64.5l30 -74.5l32 -78h4l26 63l23 57l23 58.5
l27 67.5q2 5 4 13.5t2 14.5q0 7 -8 13.5t-18.5 11t-21.5 7.5t-17 4v30h176v-29v0zM198 659q0 -25 -17 -43t-43 -18q-23 0 -40 17t-17 40q0 24 17 41.5t40 17.5q26 0 43 -16.5t17 -38.5zM415 659q0 -25 -17 -43t-42 -18q-24 0 -41 17t-17 40q0 24 17 41.5t41 17.5
q26 0 42.5 -16.5t16.5 -38.5z" />
    <glyph glyph-name="notequal" horiz-adv-x="616" 
d="M417 587q-23 0 -37 9.5t-14 26.5q0 25 6.5 34.5t8.5 15.5q-1 8 -14 21t-48 13q-22 0 -44 -10t-39.5 -33.5t-28.5 -63t-11 -98.5v-42h205v19q0 29 5 56.5t11 51.5zM706 663q0 -7 -3 -16t-9 -16.5t-15 -13t-21 -5.5q-8 0 -17 2t-16.5 7t-12.5 13t-5 21q0 11 3.5 22.5
t3.5 28.5q-3 5 -10.5 6.5t-12.5 1.5q-46 0 -73.5 -45.5t-27.5 -153.5v-55h122v-40h-122v-334q0 -34 27 -44q11 -5 26 -7.5t29 -3.5v-31h-239v31q14 1 21 2t18 4q27 9 27 44v341h-202v-336q0 -34 27 -44q11 -5 21 -7.5t24 -3.5v-31h-234v31q14 1 23.5 2t20.5 4q27 9 27 44
v339h-102v40h102v16q0 63 18.5 111.5t53.5 88.5q22 24 62.5 44t85.5 20q30 0 52 -5.5t38 -15t26 -21.5t15 -25q13 19 31.5 33t38.5 23t41 13.5t38 4.5q24 0 43 -7t31.5 -19t19 -27t6.5 -31z" />
    <glyph glyph-name="infinity" horiz-adv-x="875" 
d="M414 587q-22 1 -34.5 10t-12.5 26q0 25 6.5 34.5t8.5 15.5q0 3 -3 8.5t-10 11.5t-19 10t-30 4q-22 0 -44 -10t-40 -33.5t-29 -63t-11 -98.5v-42h204v21q0 31 3.5 57t10.5 49zM618 0v31q14 1 22.5 2t19.5 4q14 5 20.5 16.5t6.5 28.5v291q-2 15 -4.5 27t-9.5 23h-184v-336
q0 -35 27 -45q24 -10 50 -11v-31h-239v31q14 1 23.5 2t20.5 4q14 5 20.5 16.5t6.5 28.5v340h-201v-335q0 -35 27 -45q11 -5 21 -7.5t24 -3.5v-31h-234v31q14 1 23.5 2t20.5 4q14 5 20.5 16.5t6.5 28.5v338h-102v40h102v16q0 63 18.5 111.5t53.5 88.5q11 12 27 23.5
t35.5 20.5t41.5 14.5t45 5.5q58 0 89.5 -21t43.5 -51q10 13 25.5 27t35.5 25.5t44.5 19t51.5 7.5q46 0 75.5 -9t46.5 -24t23 -34t6 -40q0 -8 -3 -18t-9 -18.5t-16 -14.5t-25 -6q-8 0 -17.5 2t-18 7.5t-14.5 14t-6 21.5q0 12 2 19.5t5 11.5t5.5 6.5t3.5 5.5q0 4 -2 11
t-8.5 14t-19 12.5t-34.5 5.5q-23 0 -45 -10.5t-39 -35t-27.5 -64t-10.5 -97.5v-47h161l121 8l7 -7v-373q0 -17 6.5 -29t20.5 -17q11 -5 20.5 -7.5t23.5 -3.5v-31h-231z" />
    <glyph glyph-name="nonbreakingspace" horiz-adv-x="120" 
 />
    </font>
</defs>
</svg>
